<svg width="1600" height="1067" viewBox="0 0 1600 1067" fill="none" xmlns="http://www.w3.org/2000/svg">
<g clip-path="url(#clip0_15_1583)">
<path d="M1600 0H0V1067H1600V0Z" fill="#5454A4"/>
<path d="M1126.57 138.786L1119.9 141.148C1115.53 142.685 1112.09 146.141 1110.55 150.499L1108.19 157.172C1107.75 158.456 1105.94 158.456 1105.48 157.172L1103.12 150.499C1101.58 146.125 1098.13 142.685 1093.77 141.148L1087.1 138.786C1085.82 138.342 1085.82 136.535 1087.1 136.076L1093.77 133.714C1098.15 132.176 1101.58 128.721 1103.12 124.362L1105.48 117.689C1105.93 116.405 1107.73 116.405 1108.19 117.689L1110.55 124.362C1112.09 128.737 1115.54 132.176 1119.9 133.714L1126.57 136.076C1127.86 136.519 1127.86 138.326 1126.57 138.786Z" fill="white"/>
<path d="M459.959 227.405L455.142 229.101C451.989 230.211 449.517 232.699 448.392 235.854L446.696 240.672C446.364 241.592 445.064 241.592 444.747 240.672L443.052 235.854C441.943 232.699 439.455 230.227 436.302 229.101L431.485 227.405C430.566 227.073 430.566 225.773 431.485 225.456L436.302 223.76C439.455 222.65 441.927 220.162 443.052 217.008L444.747 212.189C445.08 211.27 446.379 211.27 446.696 212.189L448.392 217.008C449.501 220.162 451.989 222.634 455.142 223.76L459.959 225.456C460.878 225.789 460.878 227.088 459.959 227.405Z" fill="white"/>
<path d="M1478.96 452.925L1474.14 454.621C1470.99 455.73 1468.52 458.219 1467.39 461.373L1465.69 466.191C1465.36 467.111 1464.06 467.111 1463.75 466.191L1462.05 461.373C1460.94 458.219 1458.45 455.746 1455.3 454.621L1450.48 452.925C1449.56 452.592 1449.56 451.292 1450.48 450.975L1455.3 449.279C1458.45 448.17 1460.93 445.681 1462.05 442.527L1463.75 437.708C1464.08 436.789 1465.38 436.789 1465.69 437.708L1467.39 442.527C1468.5 445.681 1470.99 448.154 1474.14 449.279L1478.96 450.975C1479.88 451.308 1479.88 452.608 1478.96 452.925Z" fill="white"/>
<path d="M125.368 351.371L121.93 352.592C119.68 353.384 117.905 355.159 117.113 357.41L115.893 360.85C115.655 361.515 114.736 361.515 114.499 360.85L113.278 357.41C112.486 355.159 110.711 353.384 108.461 352.592L105.023 351.371C104.357 351.133 104.357 350.214 105.023 349.976L108.461 348.756C110.711 347.963 112.486 346.188 113.278 343.937L114.499 340.498C114.736 339.832 115.655 339.832 115.893 340.498L117.113 343.937C117.905 346.188 119.68 347.963 121.93 348.756L125.368 349.976C126.034 350.214 126.034 351.133 125.368 351.371Z" fill="white"/>
<path d="M-20.5197 133.096C118.793 33.27 314.435 128.658 315.624 297.797C316.194 379.854 241.959 401.554 219.11 308.686C114.942 -114.82 1217.91 -565.415 1211.17 -113.98C1208.4 71.4536 1197.27 131.844 1264.16 211.27C1349.61 312.744 1513.01 297.512 1620.5 250.943" stroke="white" stroke-width="1.44" stroke-miterlimit="10"/>
<path d="M238.33 934.269C246.189 944.92 261.179 947.171 271.811 939.325C282.459 931.463 284.709 916.469 276.866 905.833C269.007 895.182 254.017 892.931 243.385 900.777C232.737 908.639 230.487 923.633 238.33 934.269Z" stroke="white" stroke-width="3.06" stroke-miterlimit="10"/>
<path d="M324.782 969.171C328.712 974.497 336.207 975.623 341.531 971.692C346.855 967.761 347.98 960.264 344.05 954.938C340.12 949.612 332.626 948.487 327.302 952.418C321.978 956.349 320.853 963.846 324.782 969.171Z" fill="white"/>
<path d="M1273.09 942.416C1286.06 945.047 1298.7 936.662 1301.32 923.697C1303.95 910.731 1295.56 898.083 1282.6 895.467C1269.64 892.836 1257 901.221 1254.38 914.187C1251.75 927.152 1260.13 939.801 1273.09 942.416Z" stroke="white" stroke-width="3.06" stroke-miterlimit="10"/>
<path d="M1360.62 910.319C1367.11 911.635 1373.43 907.45 1374.74 900.967C1376.06 894.485 1371.87 888.16 1365.39 886.845C1358.91 885.529 1352.59 889.714 1351.28 896.196C1349.96 902.679 1354.14 909.003 1360.62 910.319Z" fill="white"/>
<path d="M1481.37 728.262C1498.08 743.668 1531.41 783.516 1544.24 799.113C1545.87 801.078 1547.2 802.679 1548.07 803.725C1548.74 804.534 1549.2 805.088 1549.37 805.39C1549.14 805.215 1548.6 804.692 1547.73 804.026C1546.85 803.361 1545.75 802.536 1544.27 801.475C1535.64 795.372 1516 783.405 1483.01 773.007C1436.67 758.393 1326.29 718.212 1344.43 680.219L1344.62 679.759C1344.78 679.363 1344.98 679.062 1345.27 678.729C1365.63 642.939 1460.55 708.94 1481.38 728.246L1481.37 728.262Z" fill="#8C95CA"/>
<path d="M1523.44 762.911C1523.44 762.911 1523.05 762.15 1522.28 760.692C1521.68 759.534 1520.84 757.902 1519.82 755.889C1509.7 736.456 1481.59 683.215 1463.16 658.567C1441.64 629.704 1426.11 582.026 1453.46 570.408C1453.95 570.154 1454.49 569.916 1455.09 569.774C1456.08 569.409 1457.04 569.124 1458.06 568.854C1491.55 560.802 1533.12 647.171 1523.44 762.926V762.911Z" fill="#8C95CA"/>
<path d="M1576.52 882.834C1588.32 898.146 1608.79 932.541 1620.92 953.464C1620.88 953.527 1620.95 953.559 1621.03 953.575C1623.88 958.536 1626.29 962.72 1627.97 965.7C1629.46 968.205 1630.38 969.885 1630.69 970.392C1629.35 968.854 1612.26 948.725 1570.67 927.295C1528.76 905.723 1431.63 850.389 1447.81 815.724C1448.01 815.201 1448.26 814.615 1448.6 814.139C1448.96 813.442 1449.41 812.712 1449.9 812.078C1475.23 777.699 1559.06 860.121 1576.52 882.85V882.834Z" fill="#8C95CA"/>
<path d="M1593.68 725.9C1594.64 726.518 1595.63 727.295 1596.58 728.151C1621.58 750.135 1635.91 827.469 1613.44 919.132C1612.99 920.78 1612.61 922.46 1612.17 924.093C1612.17 924.093 1612.04 923.665 1611.82 922.888C1608.65 912.919 1586.37 842.543 1570.4 811.143C1553.16 777.398 1545.97 724.204 1580.42 721.874C1585.04 721.557 1589.51 722.92 1593.69 725.916L1593.68 725.9Z" fill="#8C95CA"/>
<path d="M1649.42 1024.58C1649.12 1025.06 1648.65 1025.42 1648.07 1025.6C1646.78 1026 1645.4 1025.25 1645 1023.95C1607.64 900.222 1543.64 782.787 1459.91 684.34C1459.02 683.31 1459.17 681.741 1460.2 680.869C1461.24 679.981 1462.79 680.108 1463.67 681.154C1547.82 780.108 1612.17 898.146 1649.72 1022.52C1649.94 1023.25 1649.82 1024 1649.42 1024.58Z" fill="#0C395A"/>
<path d="M1544.24 799.097C1545.52 800.238 1546.73 801.411 1548 802.6C1548.26 802.869 1548.33 803.266 1548.2 803.598C1548.15 803.725 1548.09 803.805 1548.03 803.836C1547.92 803.947 1547.82 803.979 1547.73 804.011C1547.43 804.185 1547.08 804.122 1546.79 803.868C1545.97 803.075 1545.08 802.267 1544.27 801.475C1487.55 747.298 1418.7 705.532 1344.43 680.235L1344.62 679.775C1344.78 679.379 1344.98 679.078 1345.27 678.745C1419.14 703.9 1487.75 745.317 1544.26 799.097H1544.24Z" fill="#0C395A"/>
<path d="M1455.08 569.758C1474.92 593.375 1490.65 623.919 1501.76 660.581C1511.65 693.312 1517.13 727.533 1522.28 760.692C1521.68 759.534 1520.84 757.902 1519.82 755.889C1514.8 724.299 1509.4 691.948 1500.03 661.104C1488.99 624.473 1473.33 593.961 1453.46 570.408C1453.95 570.154 1454.49 569.916 1455.09 569.774L1455.08 569.758Z" fill="#0C395A"/>
<path d="M1448.61 814.123C1526.45 854.97 1582.97 900.682 1620.92 953.464C1620.88 953.527 1620.95 953.559 1621.03 953.575C1623.51 957.173 1626.03 960.723 1628.36 964.337C1628.54 964.638 1628.57 964.955 1628.46 965.209C1628.41 965.336 1628.27 965.51 1628.14 965.605C1628.08 965.626 1628.01 965.653 1627.95 965.684C1627.6 965.78 1627.13 965.653 1626.87 965.32C1589.21 908.1 1530.58 859.154 1447.81 815.692C1448.01 815.169 1448.26 814.583 1448.6 814.107L1448.61 814.123Z" fill="#0C395A"/>
<path d="M1593.68 725.9C1594.64 726.518 1595.63 727.295 1596.58 728.151C1606.48 750.769 1611.99 777.984 1613.47 810.414C1614.28 828.626 1613.85 847.266 1613.39 865.209C1613.04 882.882 1612.61 901.142 1613.44 919.132C1613.48 921.811 1613.63 924.458 1613.77 927.105C1613.8 927.2 1613.77 927.327 1613.71 927.453C1613.58 927.786 1613.34 927.992 1612.96 927.992C1612.49 928.024 1612.03 927.691 1612.01 927.152C1611.9 925.741 1611.85 924.347 1611.84 922.888C1610.76 903.646 1611.28 884.055 1611.69 865.114C1612.12 847.235 1612.52 828.674 1611.69 810.525C1610.24 776.891 1604.29 748.883 1593.69 725.916L1593.68 725.9Z" fill="#0C395A"/>
<path d="M129.06 695.023C110.886 711.793 74.6157 755.144 60.656 772.088C58.8813 774.228 57.4394 775.971 56.4887 777.097C55.7756 777.968 55.2686 778.587 55.0784 778.919C55.332 778.729 55.9341 778.159 56.8848 777.445C57.8355 776.732 59.0398 775.829 60.6402 774.672C70.0206 768.03 91.396 755.017 127.286 743.716C177.706 727.818 297.782 684.118 278.054 642.781L277.848 642.289C277.674 641.861 277.452 641.544 277.151 641.164C254.999 602.219 151.751 674.037 129.076 695.023H129.06Z" fill="#8C95CA"/>
<path d="M83.299 732.731C83.299 732.731 83.711 731.907 84.5508 730.322C85.2005 729.07 86.1195 727.279 87.2287 725.092C98.2412 703.947 128.823 646.03 148.867 619.211C172.271 587.811 189.162 535.949 159.42 523.3C158.897 523.015 158.295 522.761 157.645 522.619C156.568 522.223 155.538 521.906 154.413 521.62C117.969 512.855 72.7619 606.816 83.2832 732.747L83.299 732.731Z" fill="#8C95CA"/>
<path d="M25.5427 863.196C12.708 879.855 -9.58642 917.262 -22.7539 940.023C-22.7222 940.086 -22.8014 940.118 -22.8648 940.149C-25.9705 945.554 -28.585 950.104 -30.4231 953.337C-32.0393 956.063 -33.0375 957.886 -33.402 958.441C-31.9284 956.761 -13.3576 934.871 31.8809 911.555C77.4838 888.097 183.141 827.897 165.536 790.173C165.299 789.603 165.045 788.969 164.665 788.461C164.269 787.701 163.793 786.908 163.255 786.211C135.7 748.82 44.5096 838.485 25.511 863.212L25.5427 863.196Z" fill="#8C95CA"/>
<path d="M6.86105 692.456C5.81526 693.137 4.75362 693.977 3.70783 694.897C-23.4828 718.815 -39.0746 802.949 -14.6252 902.663C-14.1499 904.454 -13.7379 906.277 -13.2467 908.068C-13.2467 908.068 -13.1041 907.593 -12.8664 906.753C-9.41212 895.911 14.8154 819.354 32.1978 785.18C50.9587 748.471 58.7704 690.601 21.312 688.065C16.289 687.716 11.4245 689.19 6.8769 692.456H6.86105Z" fill="#8C95CA"/>
<path d="M-53.7791 1017.4C-53.4463 1017.91 -52.9393 1018.31 -52.3055 1018.51C-50.8952 1018.94 -49.3899 1018.13 -48.9621 1016.72C-8.31879 882.121 61.3057 754.367 152.401 647.266C153.367 646.141 153.209 644.445 152.1 643.478C150.974 642.511 149.279 642.654 148.312 643.779C56.758 751.435 -13.2309 879.855 -54.096 1015.15C-54.3337 1015.95 -54.1911 1016.75 -53.7791 1017.39V1017.4Z" fill="#0C395A"/>
<path d="M60.6561 772.104C59.2617 773.34 57.9465 774.608 56.5838 775.924C56.2827 776.209 56.2194 776.653 56.362 777.002C56.4148 777.139 56.4782 777.223 56.5521 777.255C56.6789 777.366 56.7739 777.414 56.8849 777.445C57.2176 777.636 57.5979 777.572 57.899 777.287C58.7863 776.431 59.7529 775.543 60.6402 774.672C122.342 715.74 197.259 670.313 278.054 642.781L277.848 642.289C277.674 641.861 277.452 641.544 277.151 641.164C196.783 668.522 122.152 713.584 60.6719 772.104H60.6561Z" fill="#0C395A"/>
<path d="M157.645 522.603C136.064 548.296 118.951 581.519 106.861 621.398C96.1021 657.014 90.1442 694.231 84.535 730.306C85.1846 729.054 86.1037 727.263 87.2128 725.076C92.6795 690.712 98.5581 655.508 108.747 621.953C120.757 582.105 137.791 548.899 159.404 523.285C158.881 522.999 158.279 522.746 157.63 522.603H157.645Z" fill="#0C395A"/>
<path d="M164.697 788.445C80.0191 832.874 18.5391 882.613 -22.7539 940.023C-22.7222 940.086 -22.8014 940.118 -22.8648 940.15C-25.5744 944.065 -28.3156 947.916 -30.8509 951.847C-31.041 952.18 -31.0727 952.513 -30.9618 952.798C-30.8984 952.941 -30.7399 953.131 -30.6132 953.242C-30.5498 953.274 -30.4811 953.3 -30.4072 953.321C-30.0427 953.416 -29.504 953.289 -29.2346 952.925C11.7414 890.665 75.519 837.439 165.584 790.141C165.346 789.571 165.093 788.937 164.712 788.43L164.697 788.445Z" fill="#0C395A"/>
<path d="M6.86109 692.456C5.81529 693.137 4.75365 693.977 3.70786 694.897C-7.06698 719.496 -13.0565 749.105 -14.6727 784.388C-15.5442 804.201 -15.0847 824.473 -14.5777 843.985C-14.1974 863.212 -13.7379 883.072 -14.6252 902.647C-14.6727 905.564 -14.8312 908.449 -14.9896 911.334C-15.0372 911.429 -14.9896 911.571 -14.9104 911.714C-14.7678 912.063 -14.5143 912.3 -14.1023 912.285C-13.5953 912.332 -13.0724 911.952 -13.0724 911.365C-12.9614 909.828 -12.8981 908.322 -12.8822 906.737C-11.7097 885.799 -12.2801 864.496 -12.7238 843.89C-13.1833 824.442 -13.6269 804.248 -12.7238 784.499C-11.1392 747.9 -4.67433 717.436 6.84524 692.456H6.86109Z" fill="#0C395A"/>
<path d="M1090.11 831.76C1244.16 677.661 1244.16 427.817 1090.11 273.718C936.056 119.619 686.291 119.619 532.241 273.718C378.191 427.817 378.191 677.661 532.241 831.76C686.291 985.859 936.056 985.859 1090.11 831.76Z" fill="#8C95CA"/>
<path d="M534.163 392.424C534.163 402.552 525.955 410.778 515.814 410.778C505.673 410.778 497.465 402.568 497.465 392.424C497.465 382.279 505.673 374.069 515.814 374.069C525.955 374.069 534.163 382.279 534.163 392.424Z" stroke="white" stroke-width="1.32" stroke-miterlimit="10"/>
<path d="M1067.22 368.236C1067.22 371.454 1064.6 374.069 1061.38 374.069C1058.17 374.069 1055.55 371.454 1055.55 368.236C1055.55 365.018 1058.17 362.403 1061.38 362.403C1064.6 362.403 1067.22 365.018 1067.22 368.236Z" fill="white"/>
<path d="M614.308 773.419C614.308 779.062 609.745 783.627 604.104 783.627C598.463 783.627 593.9 779.062 593.9 773.419C593.9 767.777 598.463 763.212 604.104 763.212C609.745 763.212 614.308 767.777 614.308 773.419Z" fill="white"/>
<path d="M1109.48 666.667C1109.48 681.566 1097.4 693.644 1082.51 693.644C1067.61 693.644 1055.54 681.566 1055.54 666.667C1055.54 651.768 1067.61 639.69 1082.51 639.69C1097.4 639.69 1109.48 651.768 1109.48 666.667Z" stroke="white" stroke-width="1.95" stroke-miterlimit="10"/>
<path d="M993.044 453.527C993.044 453.527 996.973 387.225 995.167 386.448C999.651 353.051 949.374 299.16 938.156 287.383C877.468 223.57 834.147 219.353 753.32 283.769C689.542 334.602 693.06 444.587 693.963 452.291C678.228 458.393 688.591 483.246 704.595 482.581C704.595 482.581 698.035 496.164 711.377 504.581C724.719 513.013 730.011 508.559 730.011 508.559C730.011 508.559 718.079 522.603 737.712 531.035C737.712 531.035 727.919 535.252 741.039 542.971C754.159 550.69 769.038 530.005 769.038 530.005C769.038 530.005 764.887 547.187 777.626 553.511C790.366 559.835 808.224 545.079 808.224 545.079C808.224 545.079 819.347 566.857 832.182 566.857C845.017 566.857 855.063 552.814 855.063 552.814C855.063 552.814 852.004 563.608 864.712 563.83C876.216 564.036 877.832 545.031 878.022 541.449C877.88 545.079 877.452 564.654 884.899 563.83C899.493 562.197 897.94 549.041 899.937 553.289C901.933 557.521 914.926 556.174 926.541 550.008C937.126 544.397 934.147 531.051 934.147 531.051C934.147 531.051 943.099 535.965 951.101 525.202C951.101 525.202 949.263 542.796 962.447 536.916C973.982 531.764 964.887 509.447 964.887 509.447C964.887 509.447 972.714 517.642 984.234 512.173C993.472 507.783 982.459 495.721 982.459 495.721C982.459 495.721 997.496 502.283 1003.22 495.245C1008.94 488.223 993.044 453.575 993.044 453.575V453.527Z" fill="url(#paint0_linear_15_1583)"/>
<path d="M558.057 764.02C558.057 764.02 583.552 988.763 659.246 991.996C877.658 1001.32 731.817 760.755 731.817 760.755L558.057 764.02Z" fill="url(#paint1_linear_15_1583)"/>
<path d="M681.825 786.892L699.319 1013.74L980.336 976.51L898.463 833.73L681.825 786.892Z" fill="url(#paint2_linear_15_1583)"/>
<path d="M819.41 488.223L805.514 579.728L734.622 581.646L818.777 685.022L948.835 604.296L891 588.002L898.574 463.83L819.41 488.223Z" fill="url(#paint3_linear_15_1583)"/>
<path d="M851.038 267.348C851.038 267.348 747.584 271.073 730.185 392.027C712.803 512.982 801.173 542.891 858.453 533.064C915.719 523.221 953.636 461.199 961.321 425.186C969.006 389.174 944.89 268.585 851.038 267.364V267.348Z" fill="url(#paint4_linear_15_1583)"/>
<path d="M690.128 877.176C690.128 877.176 775.646 912.285 925.828 886.448C925.828 886.448 1061.23 1010.19 1081.75 1167.48C1096.13 1277.89 1160.24 1970.22 1160.24 1970.22L956.679 1985.66L770.67 1102.5L862.969 1184.56L835.62 1977.86L622.532 1994.55C622.532 1994.55 548.487 1287.15 690.144 877.16L690.128 877.176Z" fill="#FBED26"/>
<path opacity="0.2" d="M802.282 1157.24C736.286 1121.68 685.406 1078.6 647.457 1038.49C565.441 1449.06 622.516 1994.58 622.516 1994.58L835.604 1977.89L852.4 1490.66L861.147 1532.16C827.808 1336.87 802.266 1157.24 802.266 1157.24H802.282Z" fill="#201829"/>
<path d="M954.809 740.308L986.817 864.876L837.791 904.011C837.791 904.011 823.72 860.01 811.171 860.961C778.656 863.402 714.403 911.016 795.928 878.666C795.928 878.666 686.611 947.044 806.481 893.407C806.481 893.407 715.655 964.21 810.759 916.279C810.759 916.279 740.105 981.138 813.88 931.86C813.88 931.86 812.169 955.699 836.317 954.922C860.466 954.145 1053.26 945.111 1085.23 924.283C1117.21 903.472 1054.38 723.633 1054.38 723.633L954.825 740.292L954.809 740.308Z" fill="url(#paint5_linear_15_1583)"/>
<path d="M779.258 580.219C779.258 580.219 743.369 572.532 715.164 582.787C686.959 593.042 643.385 682.803 633.133 721.272C622.881 759.74 620.314 818.72 620.314 818.72C620.314 818.72 848.487 893.09 935.652 849.501L979.243 734.095L960.909 771.264L1084.01 742.844C1084.01 742.844 1048.47 605.865 984.376 600.745L925.416 593.058C925.416 593.058 789.542 654.605 779.29 580.235L779.258 580.219Z" fill="#FBED26"/>
<path d="M914.102 926.803C900.016 916.358 892.711 903.44 890.509 890.157L837.791 903.995C837.791 903.995 823.72 859.994 811.171 860.945C778.656 863.386 714.403 911.001 795.928 878.65C795.928 878.65 686.611 947.029 806.481 893.391C806.481 893.391 715.655 964.195 810.759 916.263C810.759 916.263 740.105 981.123 813.88 931.844C813.88 931.844 812.169 955.683 836.317 954.906C846.728 954.573 888.433 952.703 935.097 949.01C928.838 940.245 921.946 932.589 914.118 926.772L914.102 926.803Z" fill="url(#paint6_linear_15_1583)"/>
<path d="M532.435 776.605C532.435 776.605 521.977 739.706 530.692 737.756C539.407 735.806 642.323 714.456 546.395 747.472C546.395 747.472 673.728 739.706 553.367 768.839C553.367 768.839 652.781 764.955 556.853 790.205C556.853 790.205 640.58 796.038 555.11 813.505C555.11 813.505 534.178 815.455 532.435 776.605Z" fill="url(#paint7_linear_15_1583)"/>
<g style="mix-blend-mode:multiply">
<path d="M1014.78 362.514C1012.83 375.844 1002.39 361.373 1002.39 361.373C1001.25 381.55 987.244 384.974 987.244 384.974C987.244 384.974 1001.6 389.919 1002.36 403.63C1003.14 417.341 977.927 417.99 977.927 417.99C977.927 417.99 986.072 442.083 974.441 446.267C962.811 450.452 963.191 439.563 963.191 439.563C949.231 446.569 954.65 430.274 954.65 430.274C949.231 425.868 960.862 409.336 960.862 409.336C953.224 408.908 953.494 393.723 953.494 393.723C951.529 400.809 951.893 402.124 951.893 402.124C951.893 402.124 951.402 412.887 942.576 412.364C933.75 411.856 919.759 372.785 919.759 372.785C911.234 370.503 916.954 334.617 916.954 334.617C916.954 334.617 911.139 339.468 907.067 336.615C903.074 333.809 906.354 320.32 906.481 319.781C906.354 320.098 904.024 325.202 891.079 325.472C877.959 325.757 875.566 304.914 875.661 304.628C864.617 310.62 851.529 303.202 851.529 303.202C851.529 303.202 848.613 314.915 843.384 314.915C838.155 314.915 819.822 298.637 819.822 298.637C809.935 303.773 798.875 301.205 798.875 301.205C800.142 301.775 792.964 324.235 783.853 322.714C775.075 321.24 772.952 317.848 772.809 317.594C772.873 317.99 774.235 326.359 769.497 342.701C764.649 359.455 751.862 354.129 751.862 354.129C751.862 354.129 756.9 371.073 755.538 378.301C754.175 385.529 750.499 391.821 750.499 391.821C750.499 391.821 750.895 407.814 744.335 406.325C737.775 404.835 737.316 399.049 736.729 397.417C736.143 395.768 734.4 403.059 725.875 407.624C717.335 412.189 717.731 400.206 717.731 400.206C714.815 407.054 706.686 406.118 706.686 406.118C706.686 406.118 710.838 424.489 707.098 431.432C698.542 447.25 686.896 423.538 686.896 423.538C677.198 422.207 679.734 409.352 679.734 409.352C679.734 409.352 677.785 412.585 671.399 408.591C664.997 404.597 661.702 384.229 666.17 375.083C670.306 366.619 672.936 373.181 673.3 374.196C673.332 374.275 673.348 374.323 673.348 374.323C673.348 374.323 656.251 367.507 655.474 360.089C654.698 352.671 659.737 338.39 659.737 338.39C659.737 338.39 650.229 332.303 648.106 324.109C645.967 315.93 645.317 295.942 653.066 294.611C660.592 293.327 662.858 299.097 663.017 299.715V299.747C663.017 299.747 663.349 285.957 665.98 281.17C667.691 278.079 675.043 272.246 678.117 271.47C685.596 269.552 691.538 272.785 691.538 272.785C697.94 266.699 703.185 255.762 703.185 255.762C703.185 255.762 696.672 252.877 699.461 245.522C705.546 229.482 733.085 215.137 746.95 208.559C765.805 199.62 778.735 208.369 778.593 208.559C797.781 201.427 813.532 202.283 813.532 202.283C813.532 202.283 812.803 199.667 820.424 196.339C827.729 193.153 833.481 195.372 840.294 201.062L840.421 201.157C840.294 201.062 845.096 195.071 854.983 198.494C866.709 202.568 878.735 220.701 881.587 247.741C885.01 247.741 886.911 247.932 891.301 248.867C927 221.81 934.717 252.814 934.717 252.814C934.717 252.814 940.849 249.881 952.971 250.531C964.76 251.165 965.061 253.337 965.298 257.442C965.552 261.658 957.503 264.004 957.503 264.004C983.964 269.71 980.05 269.853 980.05 269.853C990.271 274.338 991.824 280.726 991.95 283.674C991.998 284.673 991.887 285.275 991.887 285.275C991.887 285.275 1008.56 291.362 1009.33 299.366C1010.11 307.355 999.635 306.214 999.635 306.214C1002.6 312.268 1002.61 320.019 1002.11 325.377C1001.76 329.133 1001.17 331.717 1001.17 331.717C1001.17 331.717 1016.68 349.231 1014.75 362.546L1014.78 362.514Z" fill="url(#paint8_linear_15_1583)"/>
<path style="mix-blend-mode:multiply" d="M1014.78 362.514C1012.83 375.844 1002.39 361.373 1002.39 361.373C1001.25 381.55 987.244 384.974 987.244 384.974C987.244 384.974 1001.6 389.919 1002.36 403.63C1003.14 417.341 977.927 417.99 977.927 417.99C977.927 417.99 986.072 442.083 974.441 446.267C962.811 450.452 963.191 439.563 963.191 439.563C949.231 446.569 954.651 430.274 954.651 430.274C949.231 425.868 960.862 409.336 960.862 409.336C953.225 408.908 953.494 393.723 953.494 393.723C951.529 400.809 938.758 397.401 938.758 397.401C938.758 397.401 951.402 412.871 942.576 412.348C933.751 411.84 919.759 372.769 919.759 372.769C911.234 370.487 916.954 334.602 916.954 334.602C916.954 334.602 911.139 339.452 907.067 336.599C902.995 333.746 906.481 319.75 906.481 319.75C906.481 319.75 904.452 325.171 891.063 325.456C877.943 325.741 875.551 304.898 875.646 304.613C864.601 310.604 851.513 303.186 851.513 303.186C851.513 303.186 848.598 314.9 843.369 314.9C838.14 314.9 819.807 298.621 819.807 298.621C809.919 303.757 798.859 301.189 798.859 301.189C800.127 301.76 792.949 324.22 783.838 322.698C775.059 321.224 772.936 317.832 772.793 317.578C772.857 317.975 774.22 326.344 769.482 342.685C764.633 359.439 751.846 354.113 751.846 354.113C751.846 354.113 756.885 371.057 755.522 378.285C754.159 385.513 750.483 391.806 750.483 391.806C750.483 391.806 750.879 407.799 744.319 406.309C737.759 404.819 737.3 399.033 736.714 397.401C736.127 395.752 734.384 403.044 725.86 407.608C717.319 412.173 717.715 400.19 717.715 400.19C714.8 407.038 706.671 406.103 706.671 406.103C706.671 406.103 710.822 424.473 707.083 431.416C698.526 447.234 686.88 423.522 686.88 423.522C677.183 422.191 679.718 409.336 679.718 409.336C679.718 409.336 677.769 412.57 671.383 408.575C664.982 404.581 661.686 384.213 666.154 375.068C670.623 365.938 673.332 374.307 673.332 374.307C673.332 374.307 656.235 367.491 655.459 360.073C654.682 352.655 659.721 338.374 659.721 338.374C659.721 338.374 650.214 332.287 648.091 324.093C645.951 315.914 645.302 295.927 653.05 294.595C660.577 293.311 662.843 299.081 663.001 299.699V299.731C667.469 309.051 718.888 294.817 718.888 294.817C718.888 294.817 711.662 306.911 729.488 303.868C751.814 300.064 765.41 276.557 765.41 276.557C765.41 276.557 789.067 281.851 804.658 276.557C850.388 261.04 875.677 243.446 878.656 231.907L881.572 247.71L891.285 248.835C891.285 248.835 880.082 256.364 882.919 272.278C884.155 279.22 910.822 280.298 912.391 272.658C912.391 272.658 914.356 288.049 930.328 283.801C930.328 283.801 918.808 290.934 926.414 304.264C934.02 317.594 992.283 305.025 991.887 285.228C991.887 285.228 1008.56 291.314 1009.33 299.319C1010.11 307.307 999.636 306.166 999.636 306.166C1004.67 316.437 1001.19 331.669 1001.19 331.669C1001.19 331.669 1016.7 349.184 1014.77 362.498L1014.78 362.514Z" fill="url(#paint9_linear_15_1583)"/>
<path style="mix-blend-mode:multiply" d="M1014.78 362.514C1012.83 375.844 1002.39 361.373 1002.39 361.373C1001.25 381.55 987.244 384.974 987.244 384.974C987.244 384.974 1001.6 389.919 1002.36 403.63C1003.14 417.341 977.927 417.99 977.927 417.99C977.927 417.99 986.072 442.083 974.441 446.267C962.811 450.452 963.191 439.563 963.191 439.563C949.231 446.569 954.651 430.274 954.651 430.274C949.231 425.868 960.862 409.336 960.862 409.336C953.224 408.908 953.494 393.723 953.494 393.723C951.529 400.809 938.758 397.401 938.758 397.401C938.758 397.401 951.402 412.871 942.576 412.348C933.75 411.84 919.759 372.769 919.759 372.769C911.234 370.487 916.954 334.602 916.954 334.602C916.954 334.602 911.139 339.452 907.067 336.599C903.074 333.793 906.354 320.305 906.481 319.766C906.354 320.083 904.025 325.186 891.079 325.456C877.959 325.741 875.566 304.898 875.661 304.613C864.617 310.604 851.529 303.186 851.529 303.186C851.529 303.186 848.613 314.9 843.384 314.9C838.156 314.9 819.822 298.621 819.822 298.621C809.935 303.757 798.875 301.189 798.875 301.189C800.143 301.76 792.965 324.22 783.854 322.698C775.075 321.224 772.952 317.832 772.809 317.578C772.873 317.975 774.235 326.344 769.498 342.685C764.649 359.439 751.862 354.113 751.862 354.113C751.862 354.113 756.901 371.057 755.538 378.285C754.175 385.513 750.499 391.806 750.499 391.806C750.499 391.806 750.895 407.799 744.335 406.309C737.775 404.819 737.316 399.033 736.729 397.401C736.143 395.752 734.4 403.044 725.875 407.608C717.335 412.173 717.731 400.19 717.731 400.19C714.815 407.038 706.687 406.103 706.687 406.103C706.687 406.103 710.838 424.473 707.099 431.416C698.542 447.234 686.896 423.522 686.896 423.522C677.198 422.191 679.734 409.336 679.734 409.336C679.734 409.336 677.785 412.57 671.399 408.575C664.998 404.581 661.702 384.213 666.17 375.068C670.306 366.603 672.936 373.166 673.301 374.18C673.332 374.259 673.348 374.307 673.348 374.307C674.996 388.017 684.297 374.307 684.297 374.307C684.297 374.307 686.611 382.375 694.454 377.366C694.01 377.683 688.385 381.772 695.943 382.866C703.803 384.007 707.875 370.011 707.875 370.011C707.875 370.011 712.534 376.288 721.249 374.291C721.249 374.291 713.262 380.853 724.243 380.853C735.224 380.853 726.493 361.151 726.493 361.151C726.493 361.151 733.893 365.431 738.773 357.157C743.654 348.883 738.773 334.887 738.773 334.887C738.773 334.887 744.24 344.017 754.999 339.166C765.758 334.316 768.198 312.046 768.198 312.046C768.198 312.046 773.602 315.597 779.132 315.676C784.662 315.755 784.662 298.051 784.662 298.051C784.662 298.051 786.69 304.042 797.465 296.053C797.465 296.053 797.179 300.618 805.609 298.621C814.039 296.624 821.898 283.595 821.898 283.595C821.898 283.595 825.384 300.048 832.657 301.189C839.93 302.33 835.351 279.046 835.351 279.046C835.351 279.046 845.745 288.382 852.432 282.945C859.119 277.508 859.42 269.789 859.42 269.789C859.42 269.789 858.834 282.2 868.151 280.98C877.072 279.823 879.575 272.706 879.765 272.104C879.528 273.15 874.964 293.359 889.193 295.166C887.482 294.976 874.267 293.676 878.91 300.904C883.854 308.607 895.785 298.621 895.785 298.621C895.785 298.621 892.299 306.324 899.572 309.479C906.243 312.363 908.461 307.83 908.778 307.069C908.335 308.385 904.405 321.065 918.143 323.776C917.462 323.712 908.715 322.904 912.074 327.516C915.56 332.319 926.034 330.893 926.034 330.893C926.034 330.893 919.347 339.452 924.576 343.177C926.636 344.635 929.187 344.191 931.532 343.113C925.147 348.407 917.509 357.172 924.703 364.876C932.974 373.72 941.071 364.987 944.747 359.82C942.529 363.893 940.041 370.804 946.015 374.291C954.825 379.426 961.512 360.01 961.512 360.01C961.512 360.01 963.255 369.14 973.443 365.145C973.443 365.145 964.142 376.573 972.286 378.856C980.431 381.138 999.873 372.294 992.046 363.433C992.046 363.433 998.716 355.445 992.046 350.008C992.046 350.008 1005.24 346.394 1001.27 331.638C1001.27 331.638 1016.78 349.152 1014.85 362.467L1014.78 362.514Z" fill="url(#paint10_linear_15_1583)"/>
<path style="mix-blend-mode:soft-light" opacity="0.5" d="M805.102 253.701C805.102 253.701 813.389 256.11 806.354 259.899C799.319 263.687 785.787 260.755 785.787 260.755C763.777 268.918 755.76 265.462 757.423 255.223C757.423 255.223 738.853 239.769 760.751 234.031C766.297 232.573 764.586 238.215 764.506 238.342C775.63 234.031 775.17 240.26 775.17 240.26C775.17 240.26 788.116 228.024 792.695 226.454C839.423 210.414 825.178 230.179 825.178 230.179C876.026 237.613 805.102 253.685 805.102 253.685V253.701Z" fill="url(#paint11_linear_15_1583)"/>
</g>
<path d="M796.989 427.025C799.746 426.217 788.053 404.28 770.86 400.65C750.087 396.26 745.539 415.042 745.65 418.878C745.761 422.698 783.727 430.893 796.989 427.025Z" fill="url(#paint12_linear_15_1583)"/>
<path d="M773.671 428.115C781.1 427.593 786.692 421.039 786.161 413.477C785.629 405.914 779.176 400.207 771.747 400.73C764.319 401.252 758.727 407.806 759.258 415.368C759.789 422.93 766.242 428.637 773.671 428.115Z" fill="url(#paint13_linear_15_1583)"/>
<path d="M773.615 427.309C780.607 426.817 785.87 420.649 785.37 413.532C784.87 406.415 778.796 401.044 771.804 401.536C764.812 402.028 759.548 408.195 760.048 415.312C760.548 422.429 766.622 427.8 773.615 427.309Z" fill="url(#paint14_linear_15_1583)"/>
<path style="mix-blend-mode:multiply" d="M764.491 414.361C764.491 418.989 768.198 422.746 772.746 422.746C777.294 422.746 780.97 418.989 780.954 414.361C780.938 409.732 777.246 405.976 772.698 405.976C768.151 405.976 764.475 409.732 764.491 414.361Z" fill="url(#paint15_linear_15_1583)"/>
<path d="M796.245 422.587C796.245 422.587 787.641 391.821 768.705 389.095C749.786 386.369 746.348 414.646 746.348 414.646C746.348 414.646 750.753 399.778 768.69 400.713C786.626 401.649 796.245 422.587 796.245 422.587Z" fill="url(#paint16_linear_15_1583)"/>
<path d="M796.783 423.823L793.757 427.691C793.757 427.691 797.591 428.055 797.988 426.978C798.384 425.9 796.799 423.839 796.799 423.839L796.783 423.823Z" fill="#D66C7C"/>
<path d="M791.206 428.04C791.206 428.04 776.359 430.338 763.524 427.77C750.689 425.202 746.363 419.877 746.363 419.877C746.363 419.877 766.566 427.675 791.206 428.04Z" fill="#D66C7C"/>
<path d="M763.239 411.745C764.063 412.474 760.276 412.665 757.455 411.539C754.92 410.525 753.7 408.876 753.937 408.591C754.175 408.306 760.006 408.845 763.239 411.745Z" fill="white"/>
<path d="M765.394 412.474C766.471 412.094 767.723 412.665 767.771 413.251C767.818 413.838 766.487 414.551 765.885 414.313C765.267 414.075 764.807 412.681 765.41 412.474H765.394Z" fill="white"/>
<g style="mix-blend-mode:multiply" opacity="0.6">
<path d="M796.783 423.823C796.783 423.823 785.216 408.258 770.337 405.373C755.443 402.489 748.281 411.08 748.281 411.08C748.281 411.08 750.309 400.032 769.815 401.443C789.32 402.869 796.799 423.823 796.799 423.823H796.783Z" fill="#C978B1"/>
</g>
<path d="M796.783 423.823C796.783 423.823 787.736 403.265 767.565 401.791C749.564 400.476 745.904 416.532 745.904 416.532C745.904 416.532 743.987 402.489 756.33 399.16C768.087 396.006 788.338 402.346 796.783 423.807V423.823Z" fill="#401432"/>
<path d="M852.797 426.359C849.643 425.282 864.411 400.381 884.63 397.068C909.048 393.074 913.326 415.201 912.993 419.639C912.66 424.077 868.024 431.558 852.797 426.359Z" fill="url(#paint17_linear_15_1583)"/>
<path d="M897.328 414.778C898.356 406.005 892.208 398.075 883.595 397.064C874.981 396.053 867.165 402.346 866.136 411.118C865.108 419.891 871.256 427.822 879.869 428.832C888.483 429.843 896.299 423.551 897.328 414.778Z" fill="url(#paint18_linear_15_1583)"/>
<path d="M896.382 414.642C897.349 406.382 891.559 398.916 883.449 397.966C875.34 397.016 867.982 402.942 867.015 411.202C866.048 419.461 871.838 426.927 879.947 427.878C888.057 428.828 895.415 422.902 896.382 414.642Z" fill="url(#paint19_linear_15_1583)"/>
<path style="mix-blend-mode:multiply" d="M891.285 413.378C891.016 418.767 886.516 422.936 881.223 422.682C875.931 422.429 871.859 417.864 872.128 412.475C872.397 407.085 876.897 402.917 882.19 403.17C887.482 403.424 891.554 407.989 891.285 413.378Z" fill="url(#paint20_linear_15_1583)"/>
<path d="M853.89 421.224C853.89 421.224 865.568 385.878 887.751 383.738C909.919 381.582 912.391 414.678 912.391 414.678C912.391 414.678 908.065 397.131 887.134 397.258C866.218 397.385 853.89 421.224 853.89 421.224Z" fill="url(#paint21_linear_15_1583)"/>
<path d="M853.209 422.635L856.536 427.295C856.536 427.295 852.052 427.517 851.656 426.233C851.26 424.949 853.224 422.635 853.224 422.635H853.209Z" fill="#D66C7C"/>
<path d="M859.467 427.849C859.467 427.849 876.612 431.321 891.697 429.022C906.766 426.724 912.106 420.764 912.106 420.764C912.106 420.764 888.163 428.753 859.483 427.849H859.467Z" fill="#D66C7C"/>
<path d="M892.901 410.414C891.919 411.222 896.308 411.634 899.651 410.477C902.646 409.447 904.167 407.593 903.898 407.228C903.629 406.879 896.815 407.196 892.901 410.398V410.414Z" fill="white"/>
<path d="M890.35 411.143C889.13 410.652 887.641 411.238 887.546 411.92C887.45 412.585 888.956 413.505 889.685 413.267C890.414 413.013 891.032 411.428 890.35 411.159V411.143Z" fill="white"/>
<g style="mix-blend-mode:multiply" opacity="0.6">
<path d="M853.209 422.635C853.209 422.635 867.501 405.136 884.994 402.584C902.472 400.032 910.363 410.414 910.363 410.414C910.363 410.414 908.604 397.432 885.818 398.035C863.049 398.637 853.209 422.619 853.209 422.619V422.635Z" fill="#C978B1"/>
</g>
<path d="M853.209 422.635C853.209 422.635 864.855 399.208 888.401 398.574C909.428 398.019 912.819 416.897 912.819 416.897C912.819 416.897 915.814 400.65 901.616 396.117C888.1 391.806 864.189 398.098 853.209 422.619V422.635Z" fill="#401432"/>
<path d="M796.894 454.811C796.894 454.811 797.338 456.237 802.757 456.491C808.176 456.76 813.167 461.531 822.342 461.626C831.516 461.722 836.159 457.046 841.578 456.887C846.997 456.745 847.932 455.334 847.932 455.334C848.772 451.799 848.296 448.36 847.33 445.396C847.33 445.396 847.298 445.316 847.298 445.285C845.571 440.102 842.402 436.44 842.402 436.44C829.583 430.084 815.766 429.942 802.82 436.028C802.82 436.028 800.729 438.342 798.97 441.893V441.924C797.258 445.364 795.864 449.961 796.91 454.795L796.894 454.811Z" fill="url(#paint22_linear_15_1583)"/>
<path d="M809.143 458.298C809.143 458.298 805.023 454.684 799.841 456.174L809.143 458.298Z" fill="#812852"/>
<path d="M844.351 456.681C844.351 456.681 839.106 455.049 833.814 459.186L844.351 456.681Z" fill="#812852"/>
<g style="mix-blend-mode:multiply" opacity="0.6">
<path d="M796.894 454.811C796.894 454.811 797.338 456.237 802.757 456.491C808.176 456.76 813.167 461.531 822.342 461.626C831.516 461.722 836.159 457.046 841.578 456.887C846.997 456.745 847.932 455.334 847.932 455.334C848.772 451.799 848.297 448.36 847.33 445.396C847.52 446.267 848.598 451.863 846.427 453.194C844.066 454.637 830.772 453.638 822.421 453.543C814.071 453.448 799.857 453.337 798.289 451.102C796.783 448.962 798.764 442.527 798.954 441.924C797.243 445.364 795.848 449.961 796.894 454.795V454.811Z" fill="#C978B1"/>
</g>
<path style="mix-blend-mode:multiply" opacity="0.6" d="M802.82 436.028C802.82 436.028 805.704 445.269 805.276 451.72C805.276 451.72 807.558 445.443 804.722 435.172L802.82 436.012V436.028Z" fill="url(#paint23_linear_15_1583)"/>
<path style="mix-blend-mode:multiply" opacity="0.6" d="M841.927 436.44C841.927 436.44 838.853 445.618 839.138 452.085C839.138 452.085 836.983 445.76 840.041 435.553L841.927 436.44Z" fill="url(#paint24_linear_15_1583)"/>
<g style="mix-blend-mode:multiply" opacity="0.6">
<path d="M846.427 453.21C846.427 453.21 847.679 454.621 847.932 455.35C848.186 456.079 835.921 467.396 822.278 467.253C808.636 467.111 797.116 456.206 796.894 454.811C796.657 453.416 798.907 451.657 798.907 451.657C798.907 451.657 809.555 453.416 822.421 453.559C835.303 453.701 846.427 453.21 846.427 453.21Z" fill="#C978B1"/>
</g>
<path d="M811.567 450.325C813.516 449.247 810.125 446.014 809.222 446.125C808.303 446.252 807.78 448.296 808.271 449.644C808.762 450.975 810.759 450.785 811.583 450.325H811.567Z" fill="#FBC9B8"/>
<path d="M799.794 376.7C799.794 376.7 794.153 374.259 780.542 373.784C776.501 373.641 771.764 373.689 766.265 374.006C742.196 375.416 725.226 379.807 725.226 379.807C725.368 379.379 732.008 368.918 740.501 364.242C740.437 364.353 739.391 366.144 739.518 368.062C739.518 368.062 749.263 360.628 762.763 357.6C765.283 357.03 767.929 356.634 770.654 356.443C788.068 355.318 796.276 368.125 796.276 368.125C796.276 368.125 795.848 364.797 794.01 362.815C794.01 362.815 799.667 366.493 799.81 376.684L799.794 376.7Z" fill="url(#paint25_linear_15_1583)"/>
<path style="mix-blend-mode:multiply" opacity="0.6" d="M780.542 373.784C776.501 373.641 771.764 373.689 766.265 374.006C742.196 375.416 725.226 379.807 725.226 379.807C725.368 379.379 732.008 368.918 740.501 364.242C740.437 364.353 739.391 366.144 739.518 368.062C739.518 368.062 749.263 360.628 762.763 357.6C757.994 359.962 747.647 365.304 741.641 373.435C741.641 373.435 754.651 368.886 780.558 373.784H780.542Z" fill="url(#paint26_linear_15_1583)"/>
<path d="M854.603 376.7C854.603 376.7 860.244 374.259 873.855 373.784C877.896 373.641 882.633 373.689 888.132 374.006C912.201 375.416 929.171 379.807 929.171 379.807C929.029 379.379 922.389 368.918 913.896 364.242C913.96 364.353 915.005 366.144 914.879 368.062C914.879 368.062 905.134 360.628 891.634 357.6C889.114 357.03 886.468 356.634 883.743 356.443C866.329 355.318 858.121 368.125 858.121 368.125C858.121 368.125 858.548 364.797 860.387 362.815C860.387 362.815 854.73 366.493 854.587 376.684L854.603 376.7Z" fill="url(#paint27_linear_15_1583)"/>
<path style="mix-blend-mode:multiply" opacity="0.6" d="M873.871 373.784C877.912 373.641 882.649 373.689 888.148 374.006C912.217 375.416 929.187 379.807 929.187 379.807C929.044 379.379 922.405 368.918 913.912 364.242C913.976 364.353 915.021 366.144 914.895 368.062C914.895 368.062 905.15 360.628 891.649 357.6C896.419 359.962 906.766 365.304 912.771 373.435C912.771 373.435 899.762 368.886 873.855 373.784H873.871Z" fill="url(#paint28_linear_15_1583)"/>
<g style="mix-blend-mode:multiply" opacity="0.6">
<path d="M799.826 499.937C799.826 499.937 812.217 512.966 827.127 512.966C842.83 512.966 851.83 499.541 851.83 499.541C851.83 499.541 836.317 511.207 799.826 499.937Z" fill="#CC77B1"/>
</g>
<path d="M873.301 477.398L875.265 475.163C875.265 475.163 874.536 474.212 873.633 474.18L873.079 476.304C870.892 477.334 867.85 478.475 865.473 478.222C858.691 476.716 844.335 474.085 826.604 474.085C808.873 474.085 795.262 476.573 788.274 478.095C785.818 478.697 782.364 477.429 779.956 476.288L779.861 474.085C779.861 474.085 778.022 474.307 778.022 475.337L779.734 477.398C792.98 497.48 814.118 506.261 827.412 506.261C842.085 506.261 856.156 500.206 873.316 477.398H873.301Z" fill="#822852"/>
<path d="M796.878 495.562C796.878 495.562 823.673 480.203 848.899 499.129C848.899 499.129 837.157 506.721 821.946 504.993C806.75 503.281 801.474 501.918 796.863 495.562H796.878Z" fill="#DC4D6C"/>
<path d="M798.685 476.542C798.685 476.542 811.963 486.084 827.935 484.816C841.546 483.738 853.937 476.098 853.937 476.098C853.937 476.098 827.539 470.122 798.685 476.542Z" fill="#FBDDEA"/>
<path d="M826.604 470.249C808.651 470.249 788.148 478.095 788.148 478.095C815.085 474.339 826.604 475.337 826.604 475.337C826.604 475.337 838.124 474.339 865.061 478.095C865.061 478.095 844.557 470.249 826.604 470.249Z" fill="#DC4D6C"/>
<path d="M806.291 500.809C806.291 500.809 818.048 499.667 827.587 499.541C837.126 499.414 845.983 500.698 845.983 500.698C845.983 500.698 836.84 505.215 826.62 505.247C813.579 505.278 806.291 500.809 806.291 500.809Z" fill="#FBDDEA"/>
<path d="M826.604 504.137C807.606 504.137 793.868 493.01 793.868 493.01C802.9 508.021 826.604 508.623 826.604 508.623C826.604 508.623 849.945 508.401 859.341 493.01C859.341 493.01 845.603 504.137 826.604 504.137Z" fill="#ED7072"/>
<path d="M973.396 433.318C972.651 435.996 971.843 438.406 971.035 440.561L970.987 440.672C965.093 455.984 957.487 459.17 954.048 466.017C951.085 471.945 940.184 483.5 931.088 470.091C931.057 470.075 931.057 470.059 931.057 470.059C931.057 470.059 939.281 418.593 943.733 409.447C943.733 409.447 950.182 395.705 960.212 394.231C973.11 392.344 979.987 409.606 973.411 433.334L973.396 433.318Z" fill="url(#paint29_linear_15_1583)"/>
<path style="mix-blend-mode:multiply" opacity="0.6" d="M936.666 438.152C936.666 438.152 958.517 410.604 968.151 409.368C977.785 408.116 971.367 432.303 968.911 440.339C966.455 448.376 963.255 453.004 963.255 453.004C963.255 453.004 966.297 443.525 967.295 435.759C968.721 424.6 965.821 414.725 961.765 415.375C957.709 416.025 951.386 429.751 950.927 431.321C950.467 432.906 953.272 435.965 952.511 444.667C951.751 453.353 946.95 462.53 944.7 462.261C942.45 461.991 943.892 455.017 944.446 446.886C945.001 438.754 938.536 439.911 935.383 444.999L936.666 438.168V438.152Z" fill="url(#paint30_linear_15_1583)"/>
<path style="mix-blend-mode:multiply" opacity="0.6" d="M935.383 444.999C935.383 444.999 941.024 437.613 943.844 441.322C946.68 445.031 943.812 454.637 946.078 455.968C948.344 457.299 952.036 449.628 951.909 442.384C951.783 435.141 949.358 428.483 945.223 429.419L936.666 438.152L935.383 444.984V444.999Z" fill="url(#paint31_linear_15_1583)"/>
<path style="mix-blend-mode:multiply" d="M970.987 440.656C965.093 455.968 957.487 459.154 954.048 466.001C951.085 471.929 940.184 483.484 931.088 470.075C931.643 470.598 937.094 475.67 943.083 473.942C949.39 472.104 951.751 466.477 954.666 462.197C957.55 457.918 964.459 455.302 970.987 440.641V440.656Z" fill="url(#paint32_linear_15_1583)"/>
<path d="M496.831 626.122C518.317 645.935 561.163 697.163 577.674 717.198C579.781 719.718 581.477 721.779 582.602 723.126C583.457 724.156 584.044 724.885 584.266 725.266C583.964 725.044 583.267 724.362 582.142 723.522C581.017 722.666 579.591 721.604 577.706 720.241C566.614 712.395 541.356 697.021 498.954 683.659C439.376 664.876 297.465 613.22 320.789 564.385L321.027 563.798C321.233 563.291 321.486 562.91 321.867 562.467C348.043 516.453 470.068 601.3 496.847 626.122H496.831Z" fill="#5454A4"/>
<path d="M550.911 670.661C550.911 670.661 550.436 669.679 549.437 667.808C548.677 666.318 547.568 664.21 546.284 661.627C533.259 636.646 497.132 568.189 473.443 536.504C445.793 499.398 425.828 438.105 460.973 423.158C461.591 422.825 462.304 422.524 463.064 422.349C464.332 421.89 465.552 421.509 466.883 421.16C509.951 410.81 563.381 521.842 550.943 670.661H550.911Z" fill="#5454A4"/>
<path d="M619.173 824.854C634.353 844.54 660.672 888.747 676.248 915.645C676.216 915.724 676.295 915.756 676.375 915.803C680.035 922.191 683.141 927.564 685.295 931.384C687.213 934.618 688.385 936.757 688.813 937.407C687.07 935.426 665.124 909.542 611.662 881.994C557.772 854.272 432.911 783.136 453.7 738.549C453.969 737.883 454.286 737.122 454.714 736.52C455.173 735.632 455.76 734.697 456.378 733.873C488.956 689.682 596.704 795.642 619.157 824.854H619.173Z" fill="#5454A4"/>
<path d="M641.23 623.079C642.465 623.871 643.733 624.885 644.953 625.963C677.088 654.225 695.516 753.654 666.63 871.486C666.059 873.61 665.584 875.749 665.013 877.873C665.013 877.873 664.855 877.319 664.57 876.32C660.498 863.497 631.865 773.039 611.314 732.652C589.146 689.27 579.908 620.891 624.18 617.88C630.122 617.467 635.874 619.211 641.245 623.063L641.23 623.079Z" fill="#5454A4"/>
<path d="M712.898 1007.09C712.502 1007.69 711.9 1008.16 711.155 1008.39C709.475 1008.89 707.717 1007.94 707.21 1006.26C659.167 847.187 576.897 696.212 469.26 569.663C468.119 568.331 468.309 566.318 469.624 565.193C470.955 564.052 472.952 564.226 474.093 565.557C582.285 692.773 664.998 844.54 713.278 1004.44C713.564 1005.37 713.389 1006.32 712.898 1007.09Z" fill="#0C395A"/>
<path d="M577.658 717.198C579.322 718.656 580.859 720.162 582.475 721.7C582.824 722.032 582.903 722.555 582.729 722.983C582.665 723.152 582.591 723.253 582.507 723.285C582.348 723.411 582.237 723.475 582.126 723.522C581.73 723.76 581.287 723.665 580.938 723.332C579.876 722.318 578.751 721.272 577.69 720.241C504.769 650.595 416.241 596.91 320.773 564.369L321.011 563.782C321.217 563.275 321.47 562.895 321.851 562.451C416.828 594.786 505.023 648.043 577.674 717.182L577.658 717.198Z" fill="#0C395A"/>
<path d="M463.049 422.349C488.56 452.703 508.778 491.98 523.055 539.103C535.763 581.186 542.814 625.171 549.437 667.808C548.677 666.318 547.568 664.21 546.284 661.627C539.819 621.018 532.879 579.427 520.837 539.769C506.639 492.677 486.5 453.448 460.957 423.158C461.575 422.825 462.288 422.524 463.049 422.349Z" fill="#0C395A"/>
<path d="M454.714 736.52C554.777 789.032 627.428 847.805 676.232 915.645C676.2 915.724 676.279 915.756 676.359 915.803C679.559 920.432 682.792 924.981 685.803 929.641C686.04 930.037 686.072 930.433 685.929 930.766C685.866 930.94 685.676 931.146 685.517 931.289C685.443 931.321 685.364 931.352 685.28 931.384C684.836 931.495 684.218 931.337 683.901 930.925C635.478 857.347 560.101 794.437 453.684 738.549C453.953 737.883 454.27 737.122 454.698 736.52H454.714Z" fill="#0C395A"/>
<path d="M641.23 623.078C642.465 623.871 643.733 624.885 644.953 625.963C657.677 655.033 664.76 690.031 666.677 731.717C667.707 755.144 667.153 779.094 666.566 802.156C666.123 824.885 665.568 848.344 666.614 871.486C666.677 874.941 666.851 878.333 667.042 881.741C667.089 881.852 667.026 882.026 666.962 882.201C666.788 882.613 666.487 882.882 665.996 882.882C665.394 882.93 664.792 882.486 664.776 881.804C664.633 879.981 664.586 878.206 664.554 876.336C663.175 851.593 663.841 826.423 664.364 802.061C664.918 779.078 665.425 755.223 664.364 731.875C662.494 688.636 654.841 652.624 641.23 623.094V623.078Z" fill="#0C395A"/>
</g>
<defs>
<linearGradient id="paint0_linear_15_1583" x1="845.302" y1="561.151" x2="845.302" y2="412.11" gradientUnits="userSpaceOnUse">
<stop stop-color="#31111B"/>
<stop offset="1" stop-color="#1A0F21"/>
</linearGradient>
<linearGradient id="paint1_linear_15_1583" x1="553.581" y1="870.268" x2="780.756" y2="879.945" gradientUnits="userSpaceOnUse">
<stop stop-color="#F8A795"/>
<stop offset="0.43" stop-color="#F8A997"/>
<stop offset="0.52" stop-color="#F7A290"/>
<stop offset="0.76" stop-color="#F69684"/>
<stop offset="1" stop-color="#F69280"/>
</linearGradient>
<linearGradient id="paint2_linear_15_1583" x1="681.825" y1="900.318" x2="980.336" y2="900.318" gradientUnits="userSpaceOnUse">
<stop stop-color="#F9AF9C"/>
<stop offset="0.2" stop-color="#F69B8E"/>
<stop offset="0.47" stop-color="#F48781"/>
<stop offset="0.73" stop-color="#F37B79"/>
<stop offset="1" stop-color="#F37777"/>
</linearGradient>
<linearGradient id="paint3_linear_15_1583" x1="734.622" y1="574.418" x2="948.835" y2="574.418" gradientUnits="userSpaceOnUse">
<stop stop-color="#F9AF9C"/>
<stop offset="0.2" stop-color="#F69B8E"/>
<stop offset="0.47" stop-color="#F48781"/>
<stop offset="0.73" stop-color="#F37B79"/>
<stop offset="1" stop-color="#F37777"/>
</linearGradient>
<linearGradient id="paint4_linear_15_1583" x1="727.967" y1="401.062" x2="962.652" y2="401.062" gradientUnits="userSpaceOnUse">
<stop stop-color="#F8A795"/>
<stop offset="0.43" stop-color="#F8A997"/>
<stop offset="0.52" stop-color="#F7A290"/>
<stop offset="0.76" stop-color="#F69684"/>
<stop offset="1" stop-color="#F69280"/>
</linearGradient>
<linearGradient id="paint5_linear_15_1583" x1="750.309" y1="839.309" x2="1094.3" y2="839.309" gradientUnits="userSpaceOnUse">
<stop stop-color="#F8A795"/>
<stop offset="0.43" stop-color="#F8A997"/>
<stop offset="0.52" stop-color="#F7A290"/>
<stop offset="0.76" stop-color="#F69684"/>
<stop offset="1" stop-color="#F69280"/>
</linearGradient>
<linearGradient id="paint6_linear_15_1583" x1="935.082" y1="907.957" x2="750.309" y2="907.957" gradientUnits="userSpaceOnUse">
<stop stop-color="#F8A795"/>
<stop offset="0.43" stop-color="#F8A997"/>
<stop offset="0.52" stop-color="#F7A290"/>
<stop offset="0.76" stop-color="#F69684"/>
<stop offset="1" stop-color="#F69280"/>
</linearGradient>
<linearGradient id="paint7_linear_15_1583" x1="527.206" y1="771.359" x2="605.102" y2="771.359" gradientUnits="userSpaceOnUse">
<stop stop-color="#F8A795"/>
<stop offset="0.43" stop-color="#F8A997"/>
<stop offset="0.52" stop-color="#F7A290"/>
<stop offset="0.76" stop-color="#F69684"/>
<stop offset="1" stop-color="#F69280"/>
</linearGradient>
<linearGradient id="paint8_linear_15_1583" x1="830.819" y1="172.959" x2="830.819" y2="465.272" gradientUnits="userSpaceOnUse">
<stop stop-color="#010101"/>
<stop offset="0.35" stop-color="#010101"/>
<stop offset="1" stop-color="#1A0F21"/>
</linearGradient>
<linearGradient id="paint9_linear_15_1583" x1="646.696" y1="339.579" x2="1014.94" y2="339.579" gradientUnits="userSpaceOnUse">
<stop stop-color="#31111B"/>
<stop offset="1" stop-color="#1A0F21"/>
</linearGradient>
<linearGradient id="paint10_linear_15_1583" x1="839.534" y1="290.379" x2="839.534" y2="469.694" gradientUnits="userSpaceOnUse">
<stop stop-color="#31111B"/>
<stop offset="1" stop-color="#1A0F21"/>
</linearGradient>
<linearGradient id="paint11_linear_15_1583" x1="750.087" y1="242.749" x2="843.527" y2="242.749" gradientUnits="userSpaceOnUse">
<stop stop-color="#31111B"/>
<stop offset="1" stop-color="#1A0F21"/>
</linearGradient>
<linearGradient id="paint12_linear_15_1583" x1="772.337" y1="429.692" x2="769.702" y2="399.581" gradientUnits="userSpaceOnUse">
<stop stop-color="#E6DBEC"/>
<stop offset="1" stop-color="#B8C1E2"/>
</linearGradient>
<linearGradient id="paint13_linear_15_1583" x1="772.74" y1="427.798" x2="772.688" y2="400.345" gradientUnits="userSpaceOnUse">
<stop stop-color="#48204B"/>
<stop offset="1" stop-color="#301138"/>
</linearGradient>
<linearGradient id="paint14_linear_15_1583" x1="772.739" y1="427.005" x2="772.689" y2="401.153" gradientUnits="userSpaceOnUse">
<stop stop-color="#57345B"/>
<stop offset="1" stop-color="#301138"/>
</linearGradient>
<linearGradient id="paint15_linear_15_1583" x1="772.844" y1="422.762" x2="772.809" y2="405.992" gradientUnits="userSpaceOnUse">
<stop stop-color="#A093B6"/>
<stop offset="0.99" stop-color="#734B61"/>
</linearGradient>
<linearGradient id="paint16_linear_15_1583" x1="796.307" y1="405.737" x2="746.426" y2="405.841" gradientUnits="userSpaceOnUse">
<stop stop-color="#F7A190"/>
<stop offset="0.43" stop-color="#F3A592"/>
<stop offset="0.51" stop-color="#F39F8D"/>
<stop offset="0.76" stop-color="#F49383"/>
<stop offset="1" stop-color="#F58F80"/>
</linearGradient>
<linearGradient id="paint17_linear_15_1583" x1="881.708" y1="430.81" x2="886.396" y2="395.92" gradientUnits="userSpaceOnUse">
<stop stop-color="#E6DBEC"/>
<stop offset="1" stop-color="#B8C1E2"/>
</linearGradient>
<linearGradient id="paint18_linear_15_1583" x1="880.958" y1="428.811" x2="882.509" y2="396.879" gradientUnits="userSpaceOnUse">
<stop stop-color="#48204B"/>
<stop offset="1" stop-color="#301138"/>
</linearGradient>
<linearGradient id="paint19_linear_15_1583" x1="881.056" y1="428.085" x2="882.511" y2="398.02" gradientUnits="userSpaceOnUse">
<stop stop-color="#57345B"/>
<stop offset="1" stop-color="#301138"/>
</linearGradient>
<linearGradient id="paint20_linear_15_1583" x1="881.21" y1="422.526" x2="882.158" y2="403.006" gradientUnits="userSpaceOnUse">
<stop stop-color="#A093B6"/>
<stop offset="0.99" stop-color="#734B61"/>
</linearGradient>
<linearGradient id="paint21_linear_15_1583" x1="854.82" y1="401.44" x2="912.873" y2="404.258" gradientUnits="userSpaceOnUse">
<stop stop-color="#F7A190"/>
<stop offset="0.43" stop-color="#F3A592"/>
<stop offset="0.51" stop-color="#F39F8D"/>
<stop offset="0.76" stop-color="#F49383"/>
<stop offset="1" stop-color="#F58F80"/>
</linearGradient>
<linearGradient id="paint22_linear_15_1583" x1="822.408" y1="461.926" x2="822.723" y2="431.876" gradientUnits="userSpaceOnUse">
<stop stop-color="#F37B7F"/>
<stop offset="0.4" stop-color="#F3817F"/>
<stop offset="1" stop-color="#F48680"/>
</linearGradient>
<linearGradient id="paint23_linear_15_1583" x1="804.432" y1="452.021" x2="804.605" y2="435.49" gradientUnits="userSpaceOnUse">
<stop stop-color="#FBE3D4"/>
<stop offset="0.99" stop-color="#AE7CB7"/>
</linearGradient>
<linearGradient id="paint24_linear_15_1583" x1="840.134" y1="452.343" x2="840.307" y2="435.812" gradientUnits="userSpaceOnUse">
<stop stop-color="#FBE3D4"/>
<stop offset="0.99" stop-color="#AE7CB7"/>
</linearGradient>
<linearGradient id="paint25_linear_15_1583" x1="762.51" y1="360.438" x2="762.51" y2="377.81" gradientUnits="userSpaceOnUse">
<stop stop-color="#31111B"/>
<stop offset="1" stop-color="#1A0F21"/>
</linearGradient>
<linearGradient id="paint26_linear_15_1583" x1="725.21" y1="368.712" x2="780.542" y2="368.712" gradientUnits="userSpaceOnUse">
<stop stop-color="#31111B"/>
<stop offset="1" stop-color="#1A0F21"/>
</linearGradient>
<linearGradient id="paint27_linear_15_1583" x1="891.903" y1="360.438" x2="891.903" y2="377.81" gradientUnits="userSpaceOnUse">
<stop stop-color="#31111B"/>
<stop offset="1" stop-color="#1A0F21"/>
</linearGradient>
<linearGradient id="paint28_linear_15_1583" x1="873.871" y1="368.712" x2="929.203" y2="368.712" gradientUnits="userSpaceOnUse">
<stop stop-color="#31111B"/>
<stop offset="1" stop-color="#1A0F21"/>
</linearGradient>
<linearGradient id="paint29_linear_15_1583" x1="949.515" y1="502.103" x2="955.543" y2="413.022" gradientUnits="userSpaceOnUse">
<stop stop-color="#F7A190"/>
<stop offset="0.43" stop-color="#F3A592"/>
<stop offset="0.51" stop-color="#F39F8D"/>
<stop offset="0.76" stop-color="#F49383"/>
<stop offset="1" stop-color="#F58F80"/>
</linearGradient>
<linearGradient id="paint30_linear_15_1583" x1="951.115" y1="478.922" x2="955.264" y2="417.61" gradientUnits="userSpaceOnUse">
<stop stop-color="#F7A190"/>
<stop offset="0.43" stop-color="#F3A592"/>
<stop offset="0.51" stop-color="#F39F8D"/>
<stop offset="0.76" stop-color="#F49383"/>
<stop offset="1" stop-color="#F58F80"/>
</linearGradient>
<linearGradient id="paint31_linear_15_1583" x1="942.835" y1="455.755" x2="944.638" y2="429.108" gradientUnits="userSpaceOnUse">
<stop stop-color="#F7A190"/>
<stop offset="0.43" stop-color="#F3A592"/>
<stop offset="0.51" stop-color="#F39F8D"/>
<stop offset="0.76" stop-color="#F49383"/>
<stop offset="1" stop-color="#F58F80"/>
</linearGradient>
<linearGradient id="paint32_linear_15_1583" x1="969.691" y1="459.283" x2="931.938" y2="456.73" gradientUnits="userSpaceOnUse">
<stop stop-color="#F7A190"/>
<stop offset="0.43" stop-color="#F3A592"/>
<stop offset="0.51" stop-color="#F39F8D"/>
<stop offset="0.76" stop-color="#F49383"/>
<stop offset="1" stop-color="#F58F80"/>
</linearGradient>
<clipPath id="clip0_15_1583">
<rect width="1600" height="1067" fill="white"/>
</clipPath>
</defs>
</svg>
