<svg width="1600" height="1065" viewBox="0 0 1600 1065" fill="none" xmlns="http://www.w3.org/2000/svg">
<path d="M1600 -2H0V1065H1600V-2Z" fill="#5454A4"/>
<path d="M1076.78 177.641L1070.11 180.003C1065.74 181.54 1062.3 184.996 1060.76 189.354L1058.4 196.028C1057.96 197.311 1056.15 197.311 1055.69 196.028L1053.33 189.354C1051.8 184.98 1048.34 181.54 1043.98 180.003L1037.31 177.641C1036.03 177.197 1036.03 175.39 1037.31 174.931L1043.98 172.569C1048.36 171.031 1051.8 167.576 1053.33 163.217L1055.69 156.544C1056.14 155.26 1057.94 155.26 1058.4 156.544L1060.76 163.217C1062.3 167.592 1065.76 171.031 1070.11 172.569L1076.78 174.931C1078.07 175.374 1078.07 177.181 1076.78 177.641Z" fill="white"/>
<path d="M410.17 266.261L405.353 267.957C402.2 269.066 399.728 271.555 398.603 274.709L396.907 279.527C396.575 280.447 395.275 280.447 394.958 279.527L393.263 274.709C392.154 271.555 389.666 269.082 386.513 267.957L381.696 266.261C380.777 265.928 380.777 264.628 381.696 264.311L386.513 262.615C389.666 261.505 392.138 259.017 393.263 255.863L394.958 251.044C395.291 250.125 396.59 250.125 396.907 251.044L398.603 255.863C399.712 259.017 402.2 261.49 405.353 262.615L410.17 264.311C411.089 264.644 411.089 265.944 410.17 266.261Z" fill="white"/>
<path d="M1429.17 491.78L1424.35 493.476C1421.2 494.585 1418.73 497.074 1417.6 500.228L1415.91 505.046C1415.57 505.966 1414.27 505.966 1413.96 505.046L1412.26 500.228C1411.15 497.074 1408.66 494.601 1405.51 493.476L1400.69 491.78C1399.78 491.447 1399.78 490.147 1400.69 489.83L1405.51 488.134C1408.66 487.025 1411.14 484.536 1412.26 481.382L1413.96 476.563C1414.29 475.644 1415.59 475.644 1415.91 476.563L1417.6 481.382C1418.71 484.536 1421.2 487.009 1424.35 488.134L1429.17 489.83C1430.09 490.163 1430.09 491.463 1429.17 491.78Z" fill="white"/>
<path d="M75.5795 390.226L72.141 391.447C69.891 392.239 68.1163 394.015 67.3241 396.265L66.104 399.705C65.8663 400.371 64.9473 400.371 64.7096 399.705L63.4895 396.265C62.6972 394.015 60.9225 392.239 58.6725 391.447L55.2341 390.226C54.5685 389.989 54.5685 389.069 55.2341 388.832L58.6725 387.611C60.9225 386.819 62.6972 385.043 63.4895 382.793L64.7096 379.353C64.9473 378.687 65.8663 378.687 66.104 379.353L67.3241 382.793C68.1163 385.043 69.891 386.819 72.141 387.611L75.5795 388.832C76.245 389.069 76.245 389.989 75.5795 390.226Z" fill="white"/>
<path d="M-70.3087 171.951C69.0037 72.1251 264.646 167.513 265.835 336.652C266.405 418.71 192.17 440.409 169.321 347.541C65.1532 -75.965 1168.12 -526.56 1161.38 -75.1249C1158.61 110.309 1147.49 170.699 1214.37 250.125C1299.82 351.599 1463.22 336.367 1570.72 289.798" stroke="white" stroke-width="1.44" stroke-miterlimit="10"/>
<path d="M188.541 973.124C196.4 983.775 211.39 986.026 222.022 978.18C232.67 970.318 234.92 955.324 227.077 944.688C219.218 934.037 204.228 931.786 193.596 939.632C182.948 947.494 180.698 962.488 188.541 973.124Z" stroke="white" stroke-width="3.06" stroke-miterlimit="10"/>
<path d="M274.993 1008.03C278.923 1013.35 286.418 1014.48 291.742 1010.55C297.066 1006.62 298.191 999.119 294.261 993.793C290.332 988.467 282.837 987.342 277.513 991.273C272.189 995.204 271.064 1002.7 274.993 1008.03Z" fill="white"/>
<path d="M1223.31 981.271C1236.27 983.902 1248.91 975.517 1251.53 962.552C1254.16 949.586 1245.77 936.938 1232.81 934.322C1219.85 931.691 1207.21 940.076 1204.59 953.042C1201.96 966.007 1210.34 978.656 1223.31 981.271Z" stroke="white" stroke-width="3.06" stroke-miterlimit="10"/>
<path d="M1310.84 949.174C1317.32 950.49 1323.64 946.305 1324.95 939.822C1326.27 933.34 1322.09 927.015 1315.6 925.7C1309.12 924.384 1302.8 928.569 1301.49 935.051C1300.17 941.534 1304.35 947.859 1310.84 949.174Z" fill="white"/>
<path d="M1431.58 767.117C1448.29 782.523 1481.62 822.371 1494.45 837.968C1496.08 839.933 1497.41 841.534 1498.29 842.58C1498.95 843.389 1499.41 843.943 1499.59 844.245C1499.35 844.07 1498.81 843.547 1497.94 842.882C1497.07 842.216 1495.96 841.392 1494.48 840.33C1485.85 834.227 1466.21 822.26 1433.22 811.862C1386.88 797.248 1276.5 757.068 1294.64 719.074L1294.83 718.615C1294.99 718.218 1295.2 717.917 1295.48 717.584C1315.84 681.794 1410.76 747.795 1431.59 767.101L1431.58 767.117Z" fill="#8C95CA"/>
<path d="M1473.65 801.766C1473.65 801.766 1473.27 801.005 1472.49 799.547C1471.89 798.39 1471.05 796.757 1470.03 794.744C1459.91 775.311 1431.8 722.07 1413.37 697.423C1391.85 668.559 1376.32 620.881 1403.67 609.263C1404.16 609.009 1404.7 608.771 1405.31 608.629C1406.29 608.264 1407.25 607.979 1408.27 607.709C1441.77 599.657 1483.33 686.026 1473.65 801.781V801.766Z" fill="#8C95CA"/>
<path d="M1526.73 921.69C1538.53 937.001 1559.01 971.396 1571.13 992.319C1571.1 992.382 1571.16 992.414 1571.24 992.43C1574.09 997.391 1576.5 1001.58 1578.18 1004.56C1579.67 1007.06 1580.59 1008.74 1580.9 1009.25C1579.56 1007.71 1562.48 987.58 1520.88 966.15C1478.97 944.578 1381.84 889.244 1398.02 854.579C1398.22 854.056 1398.48 853.47 1398.81 852.994C1399.17 852.297 1399.62 851.568 1400.11 850.934C1425.44 816.554 1509.27 898.976 1526.73 921.705V921.69Z" fill="#8C95CA"/>
<path d="M1543.89 764.755C1544.86 765.373 1545.84 766.15 1546.79 767.006C1571.79 788.99 1586.12 866.324 1563.65 957.987C1563.2 959.635 1562.82 961.316 1562.38 962.948C1562.38 962.948 1562.25 962.52 1562.03 961.744C1558.86 951.774 1536.58 881.398 1520.61 849.998C1503.37 816.253 1496.18 763.059 1530.63 760.729C1535.25 760.412 1539.72 761.775 1543.9 764.771L1543.89 764.755Z" fill="#8C95CA"/>
<path d="M1599.63 1063.44C1599.33 1063.92 1598.86 1064.28 1598.29 1064.45C1596.99 1064.85 1595.61 1064.11 1595.21 1062.81C1557.85 939.078 1493.85 821.642 1410.12 723.195C1409.23 722.165 1409.38 720.596 1410.41 719.724C1411.45 718.836 1413.01 718.963 1413.88 720.009C1498.03 818.963 1562.38 937.001 1599.93 1061.38C1600.16 1062.11 1600.03 1062.85 1599.63 1063.44Z" fill="#0C395A"/>
<path d="M1494.45 837.952C1495.73 839.093 1496.94 840.266 1498.21 841.455C1498.48 841.724 1498.54 842.121 1498.41 842.454C1498.36 842.58 1498.3 842.66 1498.24 842.691C1498.13 842.802 1498.03 842.834 1497.94 842.866C1497.64 843.04 1497.29 842.977 1497 842.723C1496.18 841.931 1495.29 841.122 1494.48 840.33C1437.76 786.153 1368.91 744.387 1294.64 719.09L1294.83 718.63C1294.99 718.234 1295.2 717.933 1295.48 717.6C1369.35 742.755 1437.96 784.172 1494.47 837.952H1494.45Z" fill="#0C395A"/>
<path d="M1405.29 608.613C1425.13 632.23 1440.86 662.774 1451.97 699.436C1461.86 732.167 1467.34 766.388 1472.49 799.547C1471.89 798.39 1471.05 796.757 1470.03 794.744C1465.01 763.154 1459.61 730.803 1450.24 699.959C1439.2 663.328 1423.54 632.816 1403.67 609.263C1404.16 609.009 1404.7 608.771 1405.31 608.629L1405.29 608.613Z" fill="#0C395A"/>
<path d="M1398.82 852.978C1476.66 893.825 1533.18 939.537 1571.13 992.319C1571.1 992.382 1571.16 992.414 1571.24 992.43C1573.73 996.028 1576.24 999.578 1578.57 1003.19C1578.75 1003.49 1578.78 1003.81 1578.67 1004.06C1578.62 1004.19 1578.48 1004.37 1578.35 1004.46C1578.29 1004.48 1578.23 1004.51 1578.16 1004.54C1577.81 1004.63 1577.34 1004.51 1577.08 1004.18C1539.42 946.955 1480.79 898.009 1398.02 854.547C1398.22 854.024 1398.48 853.438 1398.81 852.962L1398.82 852.978Z" fill="#0C395A"/>
<path d="M1543.89 764.755C1544.86 765.373 1545.84 766.15 1546.79 767.006C1556.69 789.624 1562.21 816.839 1563.68 849.269C1564.49 867.481 1564.06 886.121 1563.6 904.064C1563.25 921.737 1562.82 939.997 1563.65 957.987C1563.7 960.666 1563.84 963.313 1563.98 965.96C1564.01 966.055 1563.98 966.182 1563.92 966.308C1563.79 966.641 1563.55 966.847 1563.17 966.847C1562.7 966.879 1562.24 966.546 1562.22 966.007C1562.11 964.597 1562.06 963.202 1562.05 961.744C1560.97 942.501 1561.49 922.91 1561.9 903.969C1562.33 886.09 1562.73 867.529 1561.9 849.38C1560.45 815.746 1554.51 787.738 1543.9 764.771L1543.89 764.755Z" fill="#0C395A"/>
<path d="M79.2714 733.878C61.0968 750.648 24.8268 793.999 10.8671 810.943C9.09237 813.083 7.65045 814.826 6.69973 815.952C5.98669 816.823 5.47963 817.442 5.28949 817.775C5.54302 817.584 6.14514 817.014 7.09586 816.3C8.04659 815.587 9.25083 814.684 10.8512 813.527C20.2317 806.885 41.607 793.872 77.4967 782.571C127.917 766.673 247.993 722.973 228.265 681.636L228.059 681.144C227.885 680.716 227.663 680.399 227.362 680.019C205.21 641.075 101.962 712.893 79.2873 733.878H79.2714Z" fill="#8C95CA"/>
<path d="M33.5101 771.587C33.5101 771.587 33.9221 770.762 34.7619 769.177C35.4115 767.925 36.3306 766.134 37.4397 763.947C48.4522 742.802 79.0338 684.885 99.0781 658.066C122.482 626.667 139.373 574.804 109.631 562.155C109.108 561.87 108.506 561.617 107.856 561.474C106.779 561.078 105.749 560.761 104.624 560.475C68.1797 551.71 22.9729 645.671 33.4942 771.602L33.5101 771.587Z" fill="#8C95CA"/>
<path d="M-24.2462 902.051C-37.0809 918.71 -59.3754 956.117 -72.5428 978.878C-72.5112 978.941 -72.5904 978.973 -72.6538 979.005C-75.7594 984.41 -78.3739 988.959 -80.212 992.192C-81.8282 994.918 -82.8265 996.741 -83.1909 997.296C-81.7173 995.616 -63.1465 973.726 -17.9081 950.41C27.6948 926.952 133.352 866.752 115.747 829.028C115.51 828.458 115.256 827.824 114.876 827.316C114.48 826.556 114.004 825.763 113.466 825.066C85.9107 787.675 -5.27934 877.34 -24.2779 902.067L-24.2462 902.051Z" fill="#8C95CA"/>
<path d="M-42.9279 731.311C-43.9737 731.992 -45.0353 732.832 -46.0811 733.752C-73.2717 757.67 -88.8636 841.804 -64.4142 941.518C-63.9388 943.31 -63.5268 945.132 -63.0356 946.923C-63.0356 946.923 -62.893 946.448 -62.6553 945.608C-59.2011 934.766 -34.9735 858.209 -17.5912 824.035C1.16972 787.326 8.98148 729.456 -28.4769 726.92C-33.4999 726.571 -38.3644 728.046 -42.912 731.311H-42.9279Z" fill="#8C95CA"/>
<path d="M-103.568 1056.26C-103.235 1056.77 -102.728 1057.16 -102.094 1057.37C-100.684 1057.8 -99.1789 1056.99 -98.7511 1055.58C-58.1077 920.976 11.5167 793.222 102.612 686.121C103.578 684.996 103.42 683.3 102.311 682.333C101.186 681.366 99.4901 681.509 98.5235 682.634C6.96911 790.29 -63.0198 918.71 -103.885 1054.01C-104.123 1054.8 -103.98 1055.61 -103.568 1056.24V1056.26Z" fill="#0C395A"/>
<path d="M10.8671 810.959C9.47272 812.195 8.15756 813.463 6.79486 814.779C6.4938 815.064 6.43042 815.508 6.57303 815.857C6.62584 815.994 6.68922 816.079 6.76317 816.11C6.88993 816.221 6.98501 816.269 7.09593 816.3C7.42868 816.491 7.80897 816.427 8.11003 816.142C8.99737 815.286 9.96393 814.398 10.8513 813.527C72.5531 754.595 147.47 709.168 228.265 681.636L228.059 681.144C227.885 680.716 227.663 680.399 227.362 680.019C146.995 707.377 72.3629 752.439 10.883 810.959H10.8671Z" fill="#0C395A"/>
<path d="M107.856 561.458C86.2751 587.151 69.1621 620.374 57.0721 660.253C46.3131 695.869 40.3553 733.086 34.746 769.161C35.3957 767.909 36.3147 766.118 37.4239 763.931C42.8905 729.567 48.7692 694.363 58.9577 660.808C70.9685 620.96 88.0023 587.754 109.615 562.14C109.092 561.854 108.49 561.601 107.841 561.458H107.856Z" fill="#0C395A"/>
<path d="M114.908 827.301C30.2301 871.729 -31.2498 921.468 -72.5428 978.878C-72.5111 978.941 -72.5904 978.973 -72.6537 979.005C-75.3633 982.92 -78.1045 986.771 -80.6398 990.702C-80.8299 991.035 -80.8616 991.368 -80.7507 991.653C-80.6873 991.796 -80.5289 991.986 -80.4021 992.097C-80.3387 992.129 -80.2701 992.155 -80.1961 992.176C-79.8317 992.271 -79.2929 992.145 -79.0236 991.78C-38.0475 929.52 25.73 876.294 115.795 828.997C115.557 828.426 115.304 827.792 114.924 827.285L114.908 827.301Z" fill="#0C395A"/>
<path d="M1329.3 996C1332.43 996 1334.75 996.683 1336.25 998.05C1337.78 999.417 1338.55 1001.2 1338.55 1003.4C1338.55 1005.27 1338.03 1006.7 1337 1007.7C1335.97 1008.67 1334.48 1009.15 1332.55 1009.15C1331.95 1009.15 1331.57 1009.1 1331.4 1009C1331.23 1008.87 1331.15 1008.62 1331.15 1008.25C1331.15 1007.92 1331.12 1007.48 1331.05 1006.95C1331.02 1006.42 1330.9 1005.9 1330.7 1005.4C1330.5 1004.9 1330.18 1004.48 1329.75 1004.15C1329.32 1003.78 1328.72 1003.6 1327.95 1003.6C1326.88 1003.6 1325.93 1003.93 1325.1 1004.6C1324.27 1005.23 1323.85 1006.07 1323.85 1007.1C1323.85 1008 1324.18 1008.73 1324.85 1009.3C1325.55 1009.87 1326.42 1010.4 1327.45 1010.9C1328.48 1011.37 1329.6 1011.85 1330.8 1012.35C1332.03 1012.85 1333.17 1013.52 1334.2 1014.35C1335.23 1015.15 1336.08 1016.17 1336.75 1017.4C1337.45 1018.6 1337.8 1020.13 1337.8 1022C1337.8 1023.47 1337.55 1024.85 1337.05 1026.15C1336.58 1027.42 1335.87 1028.53 1334.9 1029.5C1333.97 1030.43 1332.77 1031.17 1331.3 1031.7C1329.87 1032.23 1328.18 1032.5 1326.25 1032.5C1324.58 1032.5 1323.03 1032.32 1321.6 1031.95C1320.2 1031.58 1318.97 1031.13 1317.9 1030.6C1316.87 1030.03 1316.05 1029.43 1315.45 1028.8C1314.85 1028.13 1314.55 1027.53 1314.55 1027C1314.55 1024.8 1314.67 1023.22 1314.9 1022.25C1315.17 1021.28 1315.63 1020.8 1316.3 1020.8C1316.77 1020.8 1317.25 1021 1317.75 1021.4C1318.28 1021.8 1318.88 1022.25 1319.55 1022.75C1320.22 1023.25 1320.98 1023.7 1321.85 1024.1C1322.75 1024.5 1323.78 1024.7 1324.95 1024.7C1325.42 1024.7 1325.87 1024.67 1326.3 1024.6C1326.77 1024.5 1327.17 1024.35 1327.5 1024.15C1327.87 1023.95 1328.15 1023.68 1328.35 1023.35C1328.58 1023.02 1328.7 1022.62 1328.7 1022.15C1328.7 1021.32 1328.38 1020.65 1327.75 1020.15C1327.12 1019.65 1326.32 1019.2 1325.35 1018.8C1324.38 1018.37 1323.33 1017.93 1322.2 1017.5C1321.1 1017.03 1320.07 1016.42 1319.1 1015.65C1318.13 1014.85 1317.33 1013.83 1316.7 1012.6C1316.07 1011.37 1315.75 1009.78 1315.75 1007.85C1315.75 1005.68 1316.15 1003.85 1316.95 1002.35C1317.78 1000.85 1318.83 999.633 1320.1 998.7C1321.4 997.733 1322.85 997.05 1324.45 996.65C1326.08 996.217 1327.7 996 1329.3 996ZM1343 1021.55C1342.63 1021.55 1342.45 1021.37 1342.45 1021L1342.6 1018.3C1342.63 1017.87 1342.68 1017.45 1342.75 1017.05C1342.85 1016.62 1343.02 1016.23 1343.25 1015.9C1343.52 1015.57 1343.88 1015.3 1344.35 1015.1C1344.82 1014.9 1345.43 1014.8 1346.2 1014.8H1359.8C1360 1014.8 1360.18 1014.87 1360.35 1015C1360.52 1015.1 1360.6 1015.27 1360.6 1015.5L1360.4 1018.2C1360.33 1019.2 1360.05 1020.02 1359.55 1020.65C1359.08 1021.25 1358.1 1021.55 1356.6 1021.55H1343ZM1370.9 1032C1369 1032 1367.65 1031.63 1366.85 1030.9C1366.08 1030.13 1365.7 1029.02 1365.7 1027.55C1365.7 1027.12 1365.71 1026.43 1365.75 1025.5C1365.81 1024.53 1365.9 1023.4 1366 1022.1C1366.1 1020.8 1366.2 1019.38 1366.3 1017.85C1366.43 1016.32 1366.56 1014.75 1366.7 1013.15C1366.86 1011.18 1367 1009.5 1367.1 1008.1C1367.23 1006.67 1367.33 1005.45 1367.4 1004.45C1367.46 1003.42 1367.51 1002.57 1367.55 1001.9C1367.61 1001.2 1367.65 1000.6 1367.65 1000.1C1367.68 999.567 1367.7 999.083 1367.7 998.65C1367.73 998.217 1367.75 997.75 1367.75 997.25C1367.75 996.983 1367.83 996.8 1368 996.7C1368.16 996.567 1368.33 996.5 1368.5 996.5C1369.36 996.5 1370.31 996.483 1371.35 996.45C1372.38 996.383 1373.41 996.317 1374.45 996.25C1375.48 996.183 1376.48 996.133 1377.45 996.1C1378.41 996.033 1379.26 996 1380 996C1382.13 996 1383.96 996.267 1385.5 996.8C1387.03 997.3 1388.26 998.05 1389.2 999.05C1390.16 1000.02 1390.86 1001.2 1391.3 1002.6C1391.76 1004 1392 1005.6 1392 1007.4C1392 1009.37 1391.73 1011.27 1391.2 1013.1C1390.7 1014.9 1389.9 1016.5 1388.8 1017.9C1387.7 1019.3 1386.28 1020.42 1384.55 1021.25C1382.81 1022.08 1380.75 1022.5 1378.35 1022.5C1376.91 1022.5 1375.7 1022.35 1374.7 1022.05L1374 1031.25C1373.96 1031.52 1373.9 1031.72 1373.8 1031.85C1373.7 1031.95 1373.5 1032 1373.2 1032H1370.9ZM1379 1003.5C1378.56 1003.5 1378.08 1003.53 1377.55 1003.6C1377.01 1003.63 1376.45 1003.68 1375.85 1003.75C1375.78 1005.15 1375.7 1006.85 1375.6 1008.85C1375.5 1010.85 1375.36 1012.95 1375.2 1015.15C1375.7 1015.28 1376.18 1015.38 1376.65 1015.45C1377.15 1015.48 1377.6 1015.5 1378 1015.5C1379.16 1015.5 1380.1 1015.23 1380.8 1014.7C1381.53 1014.13 1382.1 1013.45 1382.5 1012.65C1382.9 1011.85 1383.16 1011.02 1383.3 1010.15C1383.43 1009.28 1383.5 1008.53 1383.5 1007.9C1383.5 1006.47 1383.16 1005.38 1382.5 1004.65C1381.86 1003.88 1380.7 1003.5 1379 1003.5ZM1412.79 995.95C1415.22 995.95 1417.31 996.3 1419.04 997C1420.77 997.667 1422.19 998.667 1423.29 1000C1424.39 1001.3 1425.19 1002.9 1425.69 1004.8C1426.19 1006.67 1426.44 1008.8 1426.44 1011.2C1426.44 1012.53 1426.34 1013.98 1426.14 1015.55C1425.97 1017.12 1425.64 1018.7 1425.14 1020.3C1424.67 1021.87 1424.02 1023.38 1423.19 1024.85C1422.36 1026.32 1421.27 1027.62 1419.94 1028.75C1418.64 1029.88 1417.07 1030.8 1415.24 1031.5C1413.41 1032.17 1411.24 1032.5 1408.74 1032.5C1405.97 1032.5 1403.67 1032.08 1401.84 1031.25C1400.04 1030.42 1398.59 1029.3 1397.49 1027.9C1396.42 1026.47 1395.66 1024.78 1395.19 1022.85C1394.76 1020.92 1394.54 1018.85 1394.54 1016.65C1394.54 1014.05 1394.84 1011.52 1395.44 1009.05C1396.04 1006.55 1397.04 1004.33 1398.44 1002.4C1399.87 1000.47 1401.76 998.917 1404.09 997.75C1406.42 996.55 1409.32 995.95 1412.79 995.95ZM1411.74 1003.7C1410.57 1003.7 1409.56 1003.92 1408.69 1004.35C1407.86 1004.75 1407.14 1005.3 1406.54 1006C1405.97 1006.7 1405.51 1007.48 1405.14 1008.35C1404.81 1009.22 1404.54 1010.12 1404.34 1011.05C1404.14 1011.95 1404.01 1012.83 1403.94 1013.7C1403.87 1014.53 1403.84 1015.28 1403.84 1015.95C1403.84 1018.98 1404.34 1021.2 1405.34 1022.6C1406.37 1024 1407.82 1024.7 1409.69 1024.7C1411.22 1024.7 1412.47 1024.22 1413.44 1023.25C1414.41 1022.25 1415.16 1021.07 1415.69 1019.7C1416.26 1018.3 1416.64 1016.87 1416.84 1015.4C1417.04 1013.9 1417.14 1012.63 1417.14 1011.6C1417.14 1009.17 1416.72 1007.25 1415.89 1005.85C1415.06 1004.42 1413.67 1003.7 1411.74 1003.7ZM1435.84 1032C1433.94 1032 1432.59 1031.63 1431.79 1030.9C1431.02 1030.13 1430.64 1029.02 1430.64 1027.55C1430.64 1027.15 1430.65 1026.48 1430.69 1025.55C1430.75 1024.58 1430.84 1023.45 1430.94 1022.15C1431.04 1020.85 1431.14 1019.43 1431.24 1017.9C1431.37 1016.33 1431.5 1014.75 1431.64 1013.15C1431.9 1009.78 1432.09 1007.05 1432.19 1004.95C1432.32 1002.85 1432.42 1001.2 1432.49 1000C1432.59 998.5 1432.69 997.55 1432.79 997.15C1432.89 996.717 1433.1 996.5 1433.44 996.5C1434.47 996.5 1435.52 996.483 1436.59 996.45C1437.69 996.383 1438.74 996.317 1439.74 996.25C1440.74 996.183 1441.67 996.133 1442.54 996.1C1443.44 996.033 1444.24 996 1444.94 996C1447.07 996 1448.9 996.267 1450.44 996.8C1451.97 997.333 1453.2 998.083 1454.14 999.05C1455.1 1000.02 1455.8 1001.18 1456.24 1002.55C1456.7 1003.92 1456.94 1005.45 1456.94 1007.15C1456.94 1009.75 1456.42 1012.07 1455.39 1014.1C1454.35 1016.13 1452.7 1017.68 1450.44 1018.75L1454.64 1024.75C1455.4 1025.88 1455.99 1026.77 1456.39 1027.4C1456.79 1028 1456.99 1028.45 1456.99 1028.75C1456.99 1028.98 1456.84 1029.32 1456.54 1029.75C1456.27 1030.15 1455.85 1030.57 1455.29 1031C1454.75 1031.4 1454.09 1031.75 1453.29 1032.05C1452.52 1032.35 1451.65 1032.5 1450.69 1032.5C1449.62 1032.5 1448.69 1032.15 1447.89 1031.45C1447.12 1030.75 1446.42 1029.83 1445.79 1028.7C1445.19 1027.53 1444.65 1026.2 1444.19 1024.7C1443.75 1023.2 1443.34 1021.63 1442.94 1020C1441.74 1019.93 1440.75 1019.82 1439.99 1019.65C1439.89 1021.12 1439.79 1022.52 1439.69 1023.85C1439.59 1025.18 1439.5 1026.38 1439.44 1027.45C1439.37 1028.48 1439.3 1029.35 1439.24 1030.05C1439.17 1030.72 1439.14 1031.12 1439.14 1031.25C1439.1 1031.52 1439.04 1031.72 1438.94 1031.85C1438.84 1031.95 1438.64 1032 1438.34 1032H1435.84ZM1443.94 1003.5C1443.54 1003.5 1443.09 1003.53 1442.59 1003.6C1442.09 1003.63 1441.55 1003.68 1440.99 1003.75C1440.92 1004.92 1440.84 1006.32 1440.74 1007.95C1440.67 1009.55 1440.57 1011.27 1440.44 1013.1C1441.6 1013.37 1442.62 1013.5 1443.49 1013.5C1444.52 1013.5 1445.35 1013.3 1445.99 1012.9C1446.65 1012.5 1447.17 1012.02 1447.54 1011.45C1447.9 1010.85 1448.14 1010.22 1448.24 1009.55C1448.37 1008.88 1448.44 1008.28 1448.44 1007.75C1448.44 1006.38 1448.1 1005.33 1447.44 1004.6C1446.77 1003.87 1445.6 1003.5 1443.94 1003.5ZM1477.31 1003.5L1475.41 1031.25C1475.37 1031.75 1475.19 1032 1474.86 1032H1472.11C1470.24 1032 1468.91 1031.63 1468.11 1030.9C1467.31 1030.17 1466.91 1029.12 1466.91 1027.75C1466.91 1027.25 1466.92 1026.5 1466.96 1025.5C1467.02 1024.5 1467.11 1023.33 1467.21 1022C1467.31 1020.63 1467.41 1019.17 1467.51 1017.6C1467.64 1016 1467.77 1014.4 1467.91 1012.8C1468.04 1011.17 1468.16 1009.55 1468.26 1007.95C1468.39 1006.35 1468.51 1004.87 1468.61 1003.5H1460.61C1460.24 1003.5 1460.06 1003.27 1460.06 1002.8L1460.21 1000C1460.24 999.567 1460.31 999.15 1460.41 998.75C1460.54 998.317 1460.74 997.933 1461.01 997.6C1461.27 997.267 1461.61 997 1462.01 996.8C1462.44 996.6 1462.96 996.5 1463.56 996.5H1485.91C1486.11 996.5 1486.29 996.55 1486.46 996.65C1486.62 996.75 1486.71 996.933 1486.71 997.2L1486.51 1000.15C1486.44 1001.15 1486.16 1001.97 1485.66 1002.6C1485.19 1003.2 1484.21 1003.5 1482.71 1003.5H1477.31ZM1503.03 1014.75C1503.86 1015.18 1504.48 1015.5 1504.88 1015.7C1505.28 1015.9 1505.6 1016.07 1505.83 1016.2C1506.1 1016.33 1506.33 1016.45 1506.53 1016.55C1506.76 1016.65 1507.1 1016.82 1507.53 1017.05C1508 1017.28 1508.65 1017.62 1509.48 1018.05C1510.35 1018.45 1511.55 1019.02 1513.08 1019.75C1513.41 1019.95 1513.58 1020.28 1513.58 1020.75C1513.58 1021.05 1513.55 1021.5 1513.48 1022.1C1513.41 1022.7 1513.28 1023.32 1513.08 1023.95C1512.91 1024.55 1512.68 1025.08 1512.38 1025.55C1512.08 1025.98 1511.68 1026.2 1511.18 1026.2C1510.75 1026.2 1510.13 1026.03 1509.33 1025.7C1508.53 1025.37 1507.63 1024.93 1506.63 1024.4C1505.66 1023.83 1504.66 1023.23 1503.63 1022.6C1502.6 1021.93 1501.61 1021.28 1500.68 1020.65C1499.78 1020.02 1498.98 1019.45 1498.28 1018.95C1497.61 1018.42 1497.16 1018 1496.93 1017.7C1496.73 1017.43 1496.61 1017.22 1496.58 1017.05C1496.55 1016.85 1496.53 1016.65 1496.53 1016.45L1496.73 1013.4C1496.76 1012.93 1496.85 1012.58 1496.98 1012.35C1497.15 1012.12 1497.4 1011.87 1497.73 1011.6C1498.1 1011.33 1498.71 1010.95 1499.58 1010.45C1500.45 1009.92 1501.43 1009.35 1502.53 1008.75C1503.63 1008.12 1504.8 1007.48 1506.03 1006.85C1507.26 1006.18 1508.43 1005.6 1509.53 1005.1C1510.66 1004.57 1511.66 1004.13 1512.53 1003.8C1513.4 1003.47 1514.01 1003.3 1514.38 1003.3C1514.78 1003.3 1514.98 1003.52 1514.98 1003.95C1514.98 1005.18 1514.93 1006.18 1514.83 1006.95C1514.73 1007.72 1514.56 1008.35 1514.33 1008.85C1514.1 1009.32 1513.81 1009.7 1513.48 1010C1513.15 1010.27 1512.75 1010.53 1512.28 1010.8C1511.78 1011.07 1511.25 1011.33 1510.68 1011.6C1510.15 1011.87 1509.51 1012.15 1508.78 1012.45C1508.08 1012.75 1507.25 1013.08 1506.28 1013.45C1505.35 1013.82 1504.26 1014.25 1503.03 1014.75ZM1520.76 1032.5C1520.3 1032.5 1519.86 1032.48 1519.46 1032.45C1519.06 1032.42 1518.7 1032.3 1518.36 1032.1C1518.06 1031.93 1517.81 1031.68 1517.61 1031.35C1517.45 1031.02 1517.36 1030.55 1517.36 1029.95C1517.36 1029.52 1517.41 1028.98 1517.51 1028.35C1517.65 1027.68 1517.85 1026.83 1518.11 1025.8C1518.38 1024.73 1518.75 1023.43 1519.21 1021.9C1519.68 1020.33 1520.26 1018.43 1520.96 1016.2C1521.66 1013.97 1522.48 1011.37 1523.41 1008.4C1524.38 1005.4 1525.5 1001.92 1526.76 997.95C1527 997.25 1527.26 996.833 1527.56 996.7C1527.9 996.567 1528.26 996.5 1528.66 996.5C1529.5 996.5 1530.16 996.567 1530.66 996.7C1531.2 996.8 1531.58 996.967 1531.81 997.2C1532.08 997.4 1532.25 997.667 1532.31 998C1532.41 998.3 1532.46 998.65 1532.46 999.05C1532.46 999.483 1532.41 999.983 1532.31 1000.55C1532.25 1001.08 1532.1 1001.82 1531.86 1002.75C1531.63 1003.65 1531.3 1004.82 1530.86 1006.25C1530.46 1007.68 1529.91 1009.5 1529.21 1011.7C1528.55 1013.87 1527.71 1016.5 1526.71 1019.6C1525.75 1022.7 1524.6 1026.37 1523.26 1030.6C1522.96 1031.5 1522.65 1032.03 1522.31 1032.2C1521.98 1032.4 1521.46 1032.5 1520.76 1032.5ZM1546.87 1014.75C1546.04 1014.32 1545.42 1014 1545.02 1013.8C1544.62 1013.6 1544.29 1013.43 1544.02 1013.3C1543.79 1013.17 1543.55 1013.05 1543.32 1012.95C1543.12 1012.85 1542.79 1012.68 1542.32 1012.45C1541.89 1012.22 1541.24 1011.9 1540.37 1011.5C1539.5 1011.07 1538.32 1010.48 1536.82 1009.75C1536.49 1009.55 1536.32 1009.22 1536.32 1008.75C1536.32 1008.45 1536.35 1008 1536.42 1007.4C1536.49 1006.8 1536.6 1006.2 1536.77 1005.6C1536.97 1004.97 1537.22 1004.43 1537.52 1004C1537.82 1003.53 1538.22 1003.3 1538.72 1003.3C1539.15 1003.3 1539.77 1003.47 1540.57 1003.8C1541.37 1004.13 1542.25 1004.58 1543.22 1005.15C1544.22 1005.68 1545.24 1006.28 1546.27 1006.95C1547.3 1007.58 1548.27 1008.22 1549.17 1008.85C1550.1 1009.48 1550.9 1010.07 1551.57 1010.6C1552.27 1011.13 1552.74 1011.53 1552.97 1011.8C1553.17 1012.07 1553.29 1012.3 1553.32 1012.5C1553.35 1012.67 1553.37 1012.85 1553.37 1013.05L1553.17 1016.1C1553.14 1016.57 1553.04 1016.92 1552.87 1017.15C1552.74 1017.38 1552.5 1017.63 1552.17 1017.9C1551.8 1018.17 1551.19 1018.57 1550.32 1019.1C1549.45 1019.6 1548.47 1020.17 1547.37 1020.8C1546.27 1021.4 1545.1 1022.03 1543.87 1022.7C1542.64 1023.33 1541.45 1023.92 1540.32 1024.45C1539.22 1024.95 1538.24 1025.37 1537.37 1025.7C1536.5 1026.03 1535.89 1026.2 1535.52 1026.2C1535.12 1026.2 1534.92 1025.98 1534.92 1025.55C1534.92 1024.32 1534.97 1023.32 1535.07 1022.55C1535.17 1021.78 1535.34 1021.17 1535.57 1020.7C1535.8 1020.2 1536.09 1019.82 1536.42 1019.55C1536.75 1019.25 1537.15 1018.97 1537.62 1018.7C1538.12 1018.43 1538.64 1018.17 1539.17 1017.9C1539.74 1017.63 1540.37 1017.35 1541.07 1017.05C1541.8 1016.75 1542.64 1016.42 1543.57 1016.05C1544.5 1015.68 1545.6 1015.25 1546.87 1014.75Z" fill="white"/>
<path d="M484.374 431.279C484.374 441.407 476.166 449.634 466.025 449.634C455.884 449.634 447.676 441.423 447.676 431.279C447.676 421.135 455.884 412.924 466.025 412.924C476.166 412.924 484.374 421.135 484.374 431.279Z" stroke="white" stroke-width="1.32" stroke-miterlimit="10"/>
<path d="M1017.43 407.091C1017.43 410.309 1014.81 412.924 1011.6 412.924C1008.38 412.924 1005.76 410.309 1005.76 407.091C1005.76 403.874 1008.38 401.258 1011.6 401.258C1014.81 401.258 1017.43 403.874 1017.43 407.091Z" fill="white"/>
<path d="M564.519 812.274C564.519 817.917 559.956 822.482 554.315 822.482C548.674 822.482 544.111 817.917 544.111 812.274C544.111 806.632 548.674 802.067 554.315 802.067C559.956 802.067 564.519 806.632 564.519 812.274Z" fill="white"/>
<path d="M1059.69 705.522C1059.69 720.421 1047.61 732.499 1032.72 732.499C1017.82 732.499 1005.75 720.421 1005.75 705.522C1005.75 690.623 1017.82 678.545 1032.72 678.545C1047.61 678.545 1059.69 690.623 1059.69 705.522Z" stroke="white" stroke-width="1.95" stroke-miterlimit="10"/>
<path d="M447.042 664.977C468.528 684.79 511.374 736.018 527.885 756.053C529.992 758.573 531.688 760.634 532.813 761.981C533.668 763.011 534.255 763.741 534.477 764.121C534.176 763.899 533.478 763.217 532.353 762.377C531.228 761.521 529.802 760.46 527.917 759.096C516.825 751.25 491.567 735.876 449.165 722.514C389.587 703.731 247.676 652.075 271 603.24L271.238 602.653C271.444 602.146 271.697 601.766 272.078 601.322C298.254 555.308 420.279 640.155 447.058 664.977H447.042Z" fill="#8C95CA"/>
<path d="M501.122 709.516C501.122 709.516 500.647 708.534 499.649 706.663C498.888 705.173 497.779 703.065 496.495 700.482C483.47 675.502 447.343 607.044 423.654 575.359C396.004 538.253 376.039 476.96 411.184 462.013C411.802 461.68 412.515 461.379 413.276 461.204C414.543 460.745 415.763 460.364 417.094 460.016C460.162 449.665 513.592 560.697 501.154 709.516H501.122Z" fill="#8C95CA"/>
<path d="M569.384 863.709C584.564 883.395 610.883 927.602 626.459 954.5C626.427 954.579 626.506 954.611 626.586 954.658C630.246 961.046 633.352 966.419 635.507 970.239C637.424 973.473 638.596 975.613 639.024 976.262C637.281 974.281 615.335 948.398 561.873 920.85C507.983 893.127 383.122 821.991 403.911 777.404C404.18 776.738 404.497 775.977 404.925 775.375C405.385 774.487 405.971 773.552 406.589 772.728C439.167 728.537 546.915 834.497 569.368 863.709H569.384Z" fill="#8C95CA"/>
<path d="M591.441 661.934C592.677 662.726 593.944 663.741 595.164 664.818C627.299 693.08 645.727 792.509 616.841 910.341C616.27 912.465 615.795 914.604 615.224 916.728C615.224 916.728 615.066 916.174 614.781 915.175C610.709 902.352 582.076 811.894 561.525 771.507C539.357 728.125 530.119 659.746 574.391 656.735C580.333 656.323 586.085 658.066 591.456 661.918L591.441 661.934Z" fill="#8C95CA"/>
<path d="M663.109 1045.94C662.713 1046.54 662.111 1047.02 661.366 1047.24C659.687 1047.75 657.928 1046.8 657.421 1045.12C609.378 886.042 527.109 735.067 419.471 608.518C418.33 607.186 418.52 605.173 419.836 604.048C421.167 602.907 423.163 603.081 424.304 604.413C532.496 731.628 615.209 883.395 663.489 1043.29C663.775 1044.23 663.6 1045.18 663.109 1045.94Z" fill="#0C395A"/>
<path d="M527.869 756.053C529.533 757.511 531.07 759.017 532.686 760.555C533.035 760.887 533.114 761.411 532.94 761.839C532.876 762.008 532.802 762.108 532.718 762.14C532.559 762.266 532.448 762.33 532.337 762.377C531.941 762.615 531.498 762.52 531.149 762.187C530.087 761.173 528.962 760.127 527.901 759.096C454.98 689.45 366.453 635.765 270.984 603.224L271.222 602.637C271.428 602.13 271.681 601.75 272.062 601.306C367.039 633.641 455.234 686.898 527.885 756.037L527.869 756.053Z" fill="#0C395A"/>
<path d="M413.26 461.204C438.771 491.558 458.989 530.835 473.266 577.958C485.974 620.041 493.025 664.026 499.649 706.663C498.888 705.173 497.779 703.065 496.495 700.482C490.03 659.873 483.09 618.282 471.048 578.624C456.85 531.533 436.711 492.303 411.168 462.013C411.786 461.68 412.499 461.379 413.26 461.204Z" fill="#0C395A"/>
<path d="M404.925 775.375C504.988 827.887 577.639 886.66 626.443 954.5C626.411 954.579 626.491 954.611 626.57 954.658C629.771 959.287 633.003 963.836 636.014 968.496C636.251 968.892 636.283 969.288 636.14 969.621C636.077 969.795 635.887 970.002 635.728 970.144C635.654 970.176 635.575 970.208 635.491 970.239C635.047 970.35 634.429 970.192 634.112 969.78C585.689 896.202 510.312 833.292 403.895 777.404C404.164 776.738 404.481 775.977 404.909 775.375H404.925Z" fill="#0C395A"/>
<path d="M591.441 661.934C592.677 662.726 593.944 663.741 595.164 664.818C607.888 693.888 614.971 728.886 616.888 770.572C617.918 793.999 617.364 817.949 616.777 841.011C616.334 863.741 615.779 887.199 616.825 910.341C616.888 913.796 617.063 917.188 617.253 920.596C617.3 920.707 617.237 920.881 617.174 921.056C616.999 921.468 616.698 921.737 616.207 921.737C615.605 921.785 615.003 921.341 614.987 920.659C614.844 918.837 614.797 917.061 614.765 915.191C613.386 890.449 614.052 865.278 614.575 840.916C615.129 817.933 615.637 794.078 614.575 770.731C612.705 727.491 605.052 691.479 591.441 661.949V661.934Z" fill="#0C395A"/>
</svg>
