<svg width="1600" height="1065" viewBox="0 0 1600 1065" fill="none" xmlns="http://www.w3.org/2000/svg">
<path d="M1600 -2H0V1065H1600V-2Z" fill="#5454A4"/>
<path d="M1076.78 177.641L1070.11 180.003C1065.74 181.54 1062.3 184.996 1060.76 189.354L1058.4 196.028C1057.96 197.311 1056.15 197.311 1055.69 196.028L1053.33 189.354C1051.8 184.98 1048.34 181.54 1043.98 180.003L1037.31 177.641C1036.03 177.197 1036.03 175.39 1037.31 174.931L1043.98 172.569C1048.36 171.031 1051.8 167.576 1053.33 163.217L1055.69 156.544C1056.14 155.26 1057.94 155.26 1058.4 156.544L1060.76 163.217C1062.3 167.592 1065.76 171.031 1070.11 172.569L1076.78 174.931C1078.07 175.374 1078.07 177.181 1076.78 177.641Z" fill="white"/>
<path d="M410.17 266.261L405.353 267.957C402.2 269.066 399.728 271.555 398.603 274.709L396.907 279.527C396.575 280.447 395.275 280.447 394.958 279.527L393.263 274.709C392.154 271.555 389.666 269.082 386.513 267.957L381.696 266.261C380.777 265.928 380.777 264.628 381.696 264.311L386.513 262.615C389.666 261.505 392.138 259.017 393.263 255.863L394.958 251.044C395.291 250.125 396.59 250.125 396.907 251.044L398.603 255.863C399.712 259.017 402.2 261.49 405.353 262.615L410.17 264.311C411.089 264.644 411.089 265.944 410.17 266.261Z" fill="white"/>
<path d="M1429.17 491.78L1424.35 493.476C1421.2 494.585 1418.73 497.074 1417.6 500.228L1415.91 505.046C1415.57 505.966 1414.27 505.966 1413.96 505.046L1412.26 500.228C1411.15 497.074 1408.66 494.601 1405.51 493.476L1400.69 491.78C1399.78 491.447 1399.78 490.147 1400.69 489.83L1405.51 488.134C1408.66 487.025 1411.14 484.536 1412.26 481.382L1413.96 476.563C1414.29 475.644 1415.59 475.644 1415.91 476.563L1417.6 481.382C1418.71 484.536 1421.2 487.009 1424.35 488.134L1429.17 489.83C1430.09 490.163 1430.09 491.463 1429.17 491.78Z" fill="white"/>
<path d="M75.5795 390.226L72.141 391.447C69.891 392.239 68.1163 394.015 67.3241 396.265L66.104 399.705C65.8663 400.371 64.9473 400.371 64.7096 399.705L63.4895 396.265C62.6972 394.015 60.9225 392.239 58.6725 391.447L55.2341 390.226C54.5685 389.989 54.5685 389.069 55.2341 388.832L58.6725 387.611C60.9225 386.819 62.6972 385.043 63.4895 382.793L64.7096 379.353C64.9473 378.687 65.8663 378.687 66.104 379.353L67.3241 382.793C68.1163 385.043 69.891 386.819 72.141 387.611L75.5795 388.832C76.245 389.069 76.245 389.989 75.5795 390.226Z" fill="white"/>
<path d="M-70.3087 171.951C69.0037 72.1251 264.646 167.513 265.835 336.652C266.405 418.71 192.17 440.409 169.321 347.541C65.1532 -75.965 1168.12 -526.56 1161.38 -75.1249C1158.61 110.309 1147.49 170.699 1214.37 250.125C1299.82 351.599 1463.22 336.367 1570.72 289.798" stroke="white" stroke-width="1.44" stroke-miterlimit="10"/>
<path d="M188.541 973.124C196.4 983.775 211.39 986.026 222.022 978.18C232.67 970.318 234.92 955.324 227.077 944.688C219.218 934.037 204.228 931.786 193.596 939.632C182.948 947.494 180.698 962.488 188.541 973.124Z" stroke="white" stroke-width="3.06" stroke-miterlimit="10"/>
<path d="M274.993 1008.03C278.923 1013.35 286.418 1014.48 291.742 1010.55C297.066 1006.62 298.191 999.119 294.261 993.793C290.332 988.467 282.837 987.342 277.513 991.273C272.189 995.204 271.064 1002.7 274.993 1008.03Z" fill="white"/>
<path d="M1223.31 981.271C1236.27 983.902 1248.91 975.517 1251.53 962.552C1254.16 949.586 1245.77 936.938 1232.81 934.322C1219.85 931.691 1207.21 940.076 1204.59 953.042C1201.96 966.007 1210.34 978.656 1223.31 981.271Z" stroke="white" stroke-width="3.06" stroke-miterlimit="10"/>
<path d="M1310.84 949.174C1317.32 950.49 1323.64 946.305 1324.95 939.822C1326.27 933.34 1322.09 927.015 1315.6 925.7C1309.12 924.384 1302.8 928.569 1301.49 935.051C1300.17 941.534 1304.35 947.859 1310.84 949.174Z" fill="white"/>
<path d="M1431.58 767.117C1448.29 782.523 1481.62 822.371 1494.45 837.968C1496.08 839.933 1497.41 841.534 1498.29 842.58C1498.95 843.389 1499.41 843.943 1499.59 844.245C1499.35 844.07 1498.81 843.547 1497.94 842.882C1497.07 842.216 1495.96 841.392 1494.48 840.33C1485.85 834.227 1466.21 822.26 1433.22 811.862C1386.88 797.248 1276.5 757.068 1294.64 719.074L1294.83 718.615C1294.99 718.218 1295.2 717.917 1295.48 717.584C1315.84 681.794 1410.76 747.795 1431.59 767.101L1431.58 767.117Z" fill="#8C95CA"/>
<path d="M1473.65 801.766C1473.65 801.766 1473.27 801.005 1472.49 799.547C1471.89 798.39 1471.05 796.757 1470.03 794.744C1459.91 775.311 1431.8 722.07 1413.37 697.423C1391.85 668.559 1376.32 620.881 1403.67 609.263C1404.16 609.009 1404.7 608.771 1405.31 608.629C1406.29 608.264 1407.25 607.979 1408.27 607.709C1441.77 599.657 1483.33 686.026 1473.65 801.781V801.766Z" fill="#8C95CA"/>
<path d="M1526.73 921.69C1538.53 937.001 1559.01 971.396 1571.13 992.319C1571.1 992.382 1571.16 992.414 1571.24 992.43C1574.09 997.391 1576.5 1001.58 1578.18 1004.56C1579.67 1007.06 1580.59 1008.74 1580.9 1009.25C1579.56 1007.71 1562.48 987.58 1520.88 966.15C1478.97 944.578 1381.84 889.244 1398.02 854.579C1398.22 854.056 1398.48 853.47 1398.81 852.994C1399.17 852.297 1399.62 851.568 1400.11 850.934C1425.44 816.554 1509.27 898.976 1526.73 921.705V921.69Z" fill="#8C95CA"/>
<path d="M1543.89 764.755C1544.86 765.373 1545.84 766.15 1546.79 767.006C1571.79 788.99 1586.12 866.324 1563.65 957.987C1563.2 959.635 1562.82 961.316 1562.38 962.948C1562.38 962.948 1562.25 962.52 1562.03 961.744C1558.86 951.774 1536.58 881.398 1520.61 849.998C1503.37 816.253 1496.18 763.059 1530.63 760.729C1535.25 760.412 1539.72 761.775 1543.9 764.771L1543.89 764.755Z" fill="#8C95CA"/>
<path d="M1599.63 1063.44C1599.33 1063.92 1598.86 1064.28 1598.29 1064.45C1596.99 1064.85 1595.61 1064.11 1595.21 1062.81C1557.85 939.078 1493.85 821.642 1410.12 723.195C1409.23 722.165 1409.38 720.596 1410.41 719.724C1411.45 718.836 1413.01 718.963 1413.88 720.009C1498.03 818.963 1562.38 937.001 1599.93 1061.38C1600.16 1062.11 1600.03 1062.85 1599.63 1063.44Z" fill="#0C395A"/>
<path d="M1494.45 837.952C1495.73 839.093 1496.94 840.266 1498.21 841.455C1498.48 841.724 1498.54 842.121 1498.41 842.454C1498.36 842.58 1498.3 842.66 1498.24 842.691C1498.13 842.802 1498.03 842.834 1497.94 842.866C1497.64 843.04 1497.29 842.977 1497 842.723C1496.18 841.931 1495.29 841.122 1494.48 840.33C1437.76 786.153 1368.91 744.387 1294.64 719.09L1294.83 718.63C1294.99 718.234 1295.2 717.933 1295.48 717.6C1369.35 742.755 1437.96 784.172 1494.47 837.952H1494.45Z" fill="#0C395A"/>
<path d="M1405.29 608.613C1425.13 632.23 1440.86 662.774 1451.97 699.436C1461.86 732.167 1467.34 766.388 1472.49 799.547C1471.89 798.39 1471.05 796.757 1470.03 794.744C1465.01 763.154 1459.61 730.803 1450.24 699.959C1439.2 663.328 1423.54 632.816 1403.67 609.263C1404.16 609.009 1404.7 608.771 1405.31 608.629L1405.29 608.613Z" fill="#0C395A"/>
<path d="M1398.82 852.978C1476.66 893.825 1533.18 939.537 1571.13 992.319C1571.1 992.382 1571.16 992.414 1571.24 992.43C1573.73 996.028 1576.24 999.578 1578.57 1003.19C1578.75 1003.49 1578.78 1003.81 1578.67 1004.06C1578.62 1004.19 1578.48 1004.37 1578.35 1004.46C1578.29 1004.48 1578.23 1004.51 1578.16 1004.54C1577.81 1004.63 1577.34 1004.51 1577.08 1004.18C1539.42 946.955 1480.79 898.009 1398.02 854.547C1398.22 854.024 1398.48 853.438 1398.81 852.962L1398.82 852.978Z" fill="#0C395A"/>
<path d="M1543.89 764.755C1544.86 765.373 1545.84 766.15 1546.79 767.006C1556.69 789.624 1562.21 816.839 1563.68 849.269C1564.49 867.481 1564.06 886.121 1563.6 904.064C1563.25 921.737 1562.82 939.997 1563.65 957.987C1563.7 960.666 1563.84 963.313 1563.98 965.96C1564.01 966.055 1563.98 966.182 1563.92 966.308C1563.79 966.641 1563.55 966.847 1563.17 966.847C1562.7 966.879 1562.24 966.546 1562.22 966.007C1562.11 964.597 1562.06 963.202 1562.05 961.744C1560.97 942.501 1561.49 922.91 1561.9 903.969C1562.33 886.09 1562.73 867.529 1561.9 849.38C1560.45 815.746 1554.51 787.738 1543.9 764.771L1543.89 764.755Z" fill="#0C395A"/>
<path d="M79.2714 733.878C61.0968 750.648 24.8268 793.999 10.8671 810.943C9.09237 813.083 7.65045 814.826 6.69973 815.952C5.98669 816.823 5.47963 817.442 5.28949 817.775C5.54302 817.584 6.14514 817.014 7.09586 816.3C8.04659 815.587 9.25083 814.684 10.8512 813.527C20.2317 806.885 41.607 793.872 77.4967 782.571C127.917 766.673 247.993 722.973 228.265 681.636L228.059 681.144C227.885 680.716 227.663 680.399 227.362 680.019C205.21 641.075 101.962 712.893 79.2873 733.878H79.2714Z" fill="#8C95CA"/>
<path d="M33.5101 771.587C33.5101 771.587 33.9221 770.762 34.7619 769.177C35.4115 767.925 36.3306 766.134 37.4397 763.947C48.4522 742.802 79.0338 684.885 99.0781 658.066C122.482 626.667 139.373 574.804 109.631 562.155C109.108 561.87 108.506 561.617 107.856 561.474C106.779 561.078 105.749 560.761 104.624 560.475C68.1797 551.71 22.9729 645.671 33.4942 771.602L33.5101 771.587Z" fill="#8C95CA"/>
<path d="M-24.2462 902.051C-37.0809 918.71 -59.3754 956.117 -72.5428 978.878C-72.5112 978.941 -72.5904 978.973 -72.6538 979.005C-75.7594 984.41 -78.3739 988.959 -80.212 992.192C-81.8282 994.918 -82.8265 996.741 -83.1909 997.296C-81.7173 995.616 -63.1465 973.726 -17.9081 950.41C27.6948 926.952 133.352 866.752 115.747 829.028C115.51 828.458 115.256 827.824 114.876 827.316C114.48 826.556 114.004 825.763 113.466 825.066C85.9107 787.675 -5.27934 877.34 -24.2779 902.067L-24.2462 902.051Z" fill="#8C95CA"/>
<path d="M-42.9279 731.311C-43.9737 731.992 -45.0353 732.832 -46.0811 733.752C-73.2717 757.67 -88.8636 841.804 -64.4142 941.518C-63.9388 943.31 -63.5268 945.132 -63.0356 946.923C-63.0356 946.923 -62.893 946.448 -62.6553 945.608C-59.2011 934.766 -34.9735 858.209 -17.5912 824.035C1.16972 787.326 8.98148 729.456 -28.4769 726.92C-33.4999 726.571 -38.3644 728.046 -42.912 731.311H-42.9279Z" fill="#8C95CA"/>
<path d="M-103.568 1056.26C-103.235 1056.77 -102.728 1057.16 -102.094 1057.37C-100.684 1057.8 -99.1789 1056.99 -98.7511 1055.58C-58.1077 920.976 11.5167 793.222 102.612 686.121C103.578 684.996 103.42 683.3 102.311 682.333C101.186 681.366 99.4901 681.509 98.5235 682.634C6.96911 790.29 -63.0198 918.71 -103.885 1054.01C-104.123 1054.8 -103.98 1055.61 -103.568 1056.24V1056.26Z" fill="#0C395A"/>
<path d="M10.8671 810.959C9.47272 812.195 8.15756 813.463 6.79486 814.779C6.4938 815.064 6.43042 815.508 6.57303 815.857C6.62584 815.994 6.68922 816.079 6.76317 816.11C6.88993 816.221 6.98501 816.269 7.09593 816.3C7.42868 816.491 7.80897 816.427 8.11003 816.142C8.99737 815.286 9.96393 814.398 10.8513 813.527C72.5531 754.595 147.47 709.168 228.265 681.636L228.059 681.144C227.885 680.716 227.663 680.399 227.362 680.019C146.995 707.377 72.3629 752.439 10.883 810.959H10.8671Z" fill="#0C395A"/>
<path d="M107.856 561.458C86.2751 587.151 69.1621 620.374 57.0721 660.253C46.3131 695.869 40.3553 733.086 34.746 769.161C35.3957 767.909 36.3147 766.118 37.4239 763.931C42.8905 729.567 48.7692 694.363 58.9577 660.808C70.9685 620.96 88.0023 587.754 109.615 562.14C109.092 561.854 108.49 561.601 107.841 561.458H107.856Z" fill="#0C395A"/>
<path d="M114.908 827.301C30.2301 871.729 -31.2498 921.468 -72.5428 978.878C-72.5111 978.941 -72.5904 978.973 -72.6537 979.005C-75.3633 982.92 -78.1045 986.771 -80.6398 990.702C-80.8299 991.035 -80.8616 991.368 -80.7507 991.653C-80.6873 991.796 -80.5289 991.986 -80.4021 992.097C-80.3387 992.129 -80.2701 992.155 -80.1961 992.176C-79.8317 992.271 -79.2929 992.145 -79.0236 991.78C-38.0475 929.52 25.73 876.294 115.795 828.997C115.557 828.426 115.304 827.792 114.924 827.285L114.908 827.301Z" fill="#0C395A"/>
<path d="M708.292 506.76C717.191 506.76 723.77 508.701 728.03 512.582C732.385 516.463 734.562 521.528 734.562 527.776C734.562 533.077 733.095 537.148 730.16 539.988C727.225 542.733 723.013 544.106 717.522 544.106C715.818 544.106 714.729 543.964 714.256 543.68C713.783 543.301 713.546 542.591 713.546 541.55C713.546 540.603 713.451 539.373 713.262 537.858C713.167 536.343 712.836 534.876 712.268 533.456C711.7 532.036 710.801 530.853 709.57 529.906C708.339 528.865 706.635 528.344 704.458 528.344C701.429 528.344 698.731 529.291 696.364 531.184C693.997 532.983 692.814 535.349 692.814 538.284C692.814 540.84 693.761 542.923 695.654 544.532C697.642 546.141 700.103 547.656 703.038 549.076C705.973 550.401 709.144 551.774 712.552 553.194C716.055 554.614 719.273 556.507 722.208 558.874C725.143 561.146 727.557 564.033 729.45 567.536C731.438 570.944 732.432 575.299 732.432 580.6C732.432 584.765 731.722 588.694 730.302 592.386C728.977 595.983 726.941 599.155 724.196 601.9C721.545 604.551 718.137 606.633 713.972 608.148C709.901 609.663 705.121 610.42 699.63 610.42C694.897 610.42 690.495 609.899 686.424 608.858C682.448 607.817 678.945 606.539 675.916 605.024C672.981 603.415 670.662 601.711 668.958 599.912C667.254 598.019 666.402 596.315 666.402 594.8C666.402 588.552 666.733 584.055 667.396 581.31C668.153 578.565 669.479 577.192 671.372 577.192C672.697 577.192 674.07 577.76 675.49 578.896C677.005 580.032 678.709 581.31 680.602 582.73C682.495 584.15 684.673 585.428 687.134 586.564C689.69 587.7 692.625 588.268 695.938 588.268C697.263 588.268 698.541 588.173 699.772 587.984C701.097 587.7 702.233 587.274 703.18 586.706C704.221 586.138 705.026 585.381 705.594 584.434C706.257 583.487 706.588 582.351 706.588 581.026C706.588 578.659 705.689 576.766 703.89 575.346C702.091 573.926 699.819 572.648 697.074 571.512C694.329 570.281 691.347 569.051 688.128 567.82C685.004 566.495 682.069 564.743 679.324 562.566C676.579 560.294 674.307 557.407 672.508 553.904C670.709 550.401 669.81 545.905 669.81 540.414C669.81 534.261 670.946 529.054 673.218 524.794C675.585 520.534 678.567 517.079 682.164 514.428C685.856 511.683 689.974 509.742 694.518 508.606C699.157 507.375 703.748 506.76 708.292 506.76ZM747.202 579.322C746.161 579.322 745.64 578.801 745.64 577.76L746.066 570.092C746.161 568.861 746.303 567.678 746.492 566.542C746.776 565.311 747.25 564.223 747.912 563.276C748.67 562.329 749.711 561.572 751.036 561.004C752.362 560.436 754.113 560.152 756.29 560.152H794.914C795.482 560.152 796.003 560.341 796.476 560.72C796.95 561.004 797.186 561.477 797.186 562.14L796.618 569.808C796.429 572.648 795.624 574.967 794.204 576.766C792.879 578.47 790.086 579.322 785.826 579.322H747.202ZM826.426 609C821.03 609 817.196 607.959 814.924 605.876C812.747 603.699 811.658 600.527 811.658 596.362C811.658 595.131 811.705 593.191 811.8 590.54C811.989 587.795 812.226 584.576 812.51 580.884C812.794 577.192 813.078 573.169 813.362 568.814C813.741 564.459 814.119 560.01 814.498 555.466C814.971 549.881 815.35 545.1 815.634 541.124C816.013 537.053 816.297 533.598 816.486 530.758C816.675 527.823 816.817 525.409 816.912 523.516C817.101 521.528 817.196 519.824 817.196 518.404C817.291 516.889 817.338 515.517 817.338 514.286C817.433 513.055 817.48 511.73 817.48 510.31C817.48 509.553 817.717 509.032 818.19 508.748C818.663 508.369 819.137 508.18 819.61 508.18C822.071 508.18 824.769 508.133 827.704 508.038C830.639 507.849 833.573 507.659 836.508 507.47C839.443 507.281 842.283 507.139 845.028 507.044C847.773 506.855 850.187 506.76 852.27 506.76C858.329 506.76 863.535 507.517 867.89 509.032C872.245 510.452 875.747 512.582 878.398 515.422C881.143 518.167 883.131 521.528 884.362 525.504C885.687 529.48 886.35 534.024 886.35 539.136C886.35 544.721 885.593 550.117 884.078 555.324C882.658 560.436 880.386 564.98 877.262 568.956C874.138 572.932 870.115 576.103 865.192 578.47C860.269 580.837 854.4 582.02 847.584 582.02C843.513 582.02 840.058 581.594 837.218 580.742L835.23 606.87C835.135 607.627 834.946 608.195 834.662 608.574C834.378 608.858 833.81 609 832.958 609H826.426ZM849.43 528.06C848.199 528.06 846.827 528.155 845.312 528.344C843.797 528.439 842.188 528.581 840.484 528.77C840.295 532.746 840.058 537.574 839.774 543.254C839.49 548.934 839.111 554.898 838.638 561.146C840.058 561.525 841.431 561.809 842.756 561.998C844.176 562.093 845.454 562.14 846.59 562.14C849.903 562.14 852.554 561.383 854.542 559.868C856.625 558.259 858.234 556.318 859.37 554.046C860.506 551.774 861.263 549.407 861.642 546.946C862.021 544.485 862.21 542.355 862.21 540.556C862.21 536.485 861.263 533.409 859.37 531.326C857.571 529.149 854.258 528.06 849.43 528.06ZM945.406 506.618C952.317 506.618 958.234 507.612 963.156 509.6C968.079 511.493 972.102 514.333 975.226 518.12C978.35 521.812 980.622 526.356 982.042 531.752C983.462 537.053 984.172 543.112 984.172 549.928C984.172 553.715 983.888 557.833 983.32 562.282C982.847 566.731 981.9 571.228 980.48 575.772C979.155 580.221 977.309 584.529 974.942 588.694C972.576 592.859 969.499 596.551 965.712 599.77C962.02 602.989 957.571 605.592 952.364 607.58C947.158 609.473 941.004 610.42 933.904 610.42C926.047 610.42 919.515 609.237 914.308 606.87C909.196 604.503 905.078 601.332 901.954 597.356C898.925 593.285 896.748 588.505 895.422 583.014C894.192 577.523 893.576 571.654 893.576 565.406C893.576 558.022 894.428 550.827 896.132 543.822C897.836 536.722 900.676 530.427 904.652 524.936C908.723 519.445 914.072 515.043 920.698 511.73C927.325 508.322 935.561 506.618 945.406 506.618ZM942.424 528.628C939.111 528.628 936.224 529.243 933.762 530.474C931.396 531.61 929.36 533.172 927.656 535.16C926.047 537.148 924.722 539.373 923.68 541.834C922.734 544.295 921.976 546.851 921.408 549.502C920.84 552.058 920.462 554.567 920.272 557.028C920.083 559.395 919.988 561.525 919.988 563.418C919.988 572.033 921.408 578.328 924.248 582.304C927.183 586.28 931.301 588.268 936.602 588.268C940.957 588.268 944.507 586.895 947.252 584.15C949.998 581.31 952.128 577.949 953.642 574.068C955.252 570.092 956.34 566.021 956.908 561.856C957.476 557.596 957.76 553.999 957.76 551.064C957.76 544.153 956.577 538.71 954.21 534.734C951.844 530.663 947.915 528.628 942.424 528.628ZM1010.86 609C1005.46 609 1001.63 607.959 999.358 605.876C997.18 603.699 996.092 600.527 996.092 596.362C996.092 595.226 996.139 593.333 996.234 590.682C996.423 587.937 996.66 584.718 996.944 581.026C997.228 577.334 997.512 573.311 997.796 568.956C998.174 564.507 998.553 560.01 998.932 555.466C999.689 545.905 1000.21 538.142 1000.49 532.178C1000.87 526.214 1001.16 521.528 1001.35 518.12C1001.63 513.86 1001.91 511.162 1002.2 510.026C1002.48 508.795 1003.1 508.18 1004.04 508.18C1006.98 508.18 1009.96 508.133 1012.99 508.038C1016.11 507.849 1019.1 507.659 1021.94 507.47C1024.78 507.281 1027.43 507.139 1029.89 507.044C1032.44 506.855 1034.72 506.76 1036.7 506.76C1042.76 506.76 1047.97 507.517 1052.32 509.032C1056.68 510.547 1060.18 512.677 1062.83 515.422C1065.58 518.167 1067.56 521.481 1068.8 525.362C1070.12 529.243 1070.78 533.598 1070.78 538.426C1070.78 545.81 1069.32 552.389 1066.38 558.164C1063.45 563.939 1058.76 568.341 1052.32 571.37L1064.25 588.41C1066.43 591.629 1068.09 594.137 1069.22 595.936C1070.36 597.64 1070.93 598.918 1070.93 599.77C1070.93 600.433 1070.5 601.379 1069.65 602.61C1068.89 603.746 1067.71 604.929 1066.1 606.16C1064.58 607.296 1062.69 608.29 1060.42 609.142C1058.24 609.994 1055.78 610.42 1053.03 610.42C1050 610.42 1047.35 609.426 1045.08 607.438C1042.9 605.45 1040.92 602.847 1039.12 599.628C1037.41 596.315 1035.9 592.528 1034.57 588.268C1033.34 584.008 1032.16 579.559 1031.02 574.92C1027.62 574.731 1024.82 574.399 1022.65 573.926C1022.36 578.091 1022.08 582.067 1021.79 585.854C1021.51 589.641 1021.27 593.049 1021.08 596.078C1020.89 599.013 1020.7 601.474 1020.52 603.462C1020.33 605.355 1020.23 606.491 1020.23 606.87C1020.14 607.627 1019.95 608.195 1019.66 608.574C1019.38 608.858 1018.81 609 1017.96 609H1010.86ZM1033.86 528.06C1032.73 528.06 1031.45 528.155 1030.03 528.344C1028.61 528.439 1027.09 528.581 1025.49 528.77C1025.3 532.083 1025.06 536.059 1024.78 540.698C1024.59 545.242 1024.3 550.117 1023.92 555.324C1027.24 556.081 1030.12 556.46 1032.59 556.46C1035.52 556.46 1037.89 555.892 1039.69 554.756C1041.58 553.62 1043.05 552.247 1044.09 550.638C1045.13 548.934 1045.79 547.135 1046.08 545.242C1046.45 543.349 1046.64 541.645 1046.64 540.13C1046.64 536.249 1045.7 533.267 1043.8 531.184C1041.91 529.101 1038.6 528.06 1033.86 528.06ZM1128.63 528.06L1123.23 606.87C1123.14 608.29 1122.62 609 1121.67 609H1113.86C1108.56 609 1104.77 607.959 1102.5 605.876C1100.23 603.793 1099.09 600.811 1099.09 596.93C1099.09 595.51 1099.14 593.38 1099.24 590.54C1099.43 587.7 1099.66 584.387 1099.95 580.6C1100.23 576.719 1100.51 572.553 1100.8 568.104C1101.18 563.56 1101.56 559.016 1101.93 554.472C1102.31 549.833 1102.64 545.242 1102.93 540.698C1103.31 536.154 1103.64 531.941 1103.92 528.06H1081.2C1080.16 528.06 1079.64 527.397 1079.64 526.072L1080.07 518.12C1080.16 516.889 1080.35 515.706 1080.63 514.57C1081.01 513.339 1081.58 512.251 1082.34 511.304C1083.1 510.357 1084.04 509.6 1085.18 509.032C1086.41 508.464 1087.88 508.18 1089.58 508.18H1153.05C1153.62 508.18 1154.14 508.322 1154.62 508.606C1155.09 508.89 1155.33 509.411 1155.33 510.168L1154.76 518.546C1154.57 521.386 1153.76 523.705 1152.34 525.504C1151.02 527.208 1148.23 528.06 1143.97 528.06H1128.63ZM1201.68 560.01C1204.05 561.241 1205.8 562.14 1206.94 562.708C1208.07 563.276 1208.97 563.749 1209.63 564.128C1210.39 564.507 1211.05 564.838 1211.62 565.122C1212.28 565.406 1213.23 565.879 1214.46 566.542C1215.79 567.205 1217.63 568.151 1220 569.382C1222.46 570.518 1225.87 572.127 1230.22 574.21C1231.17 574.778 1231.64 575.725 1231.64 577.05C1231.64 577.902 1231.55 579.18 1231.36 580.884C1231.17 582.588 1230.79 584.339 1230.22 586.138C1229.75 587.842 1229.09 589.357 1228.24 590.682C1227.38 591.913 1226.25 592.528 1224.83 592.528C1223.6 592.528 1221.85 592.055 1219.57 591.108C1217.3 590.161 1214.75 588.931 1211.91 587.416C1209.16 585.807 1206.32 584.103 1203.39 582.304C1200.45 580.411 1197.66 578.565 1195.01 576.766C1192.45 574.967 1190.18 573.358 1188.19 571.938C1186.3 570.423 1185.02 569.24 1184.36 568.388C1183.79 567.631 1183.46 567.015 1183.36 566.542C1183.27 565.974 1183.22 565.406 1183.22 564.838L1183.79 556.176C1183.88 554.851 1184.12 553.857 1184.5 553.194C1184.97 552.531 1185.68 551.821 1186.63 551.064C1187.67 550.307 1189.42 549.218 1191.88 547.798C1194.35 546.283 1197.14 544.674 1200.26 542.97C1203.39 541.171 1206.7 539.373 1210.2 537.574C1213.7 535.681 1217.02 534.024 1220.14 532.604C1223.36 531.089 1226.2 529.859 1228.66 528.912C1231.12 527.965 1232.87 527.492 1233.92 527.492C1235.05 527.492 1235.62 528.107 1235.62 529.338C1235.62 532.841 1235.48 535.681 1235.19 537.858C1234.91 540.035 1234.44 541.834 1233.77 543.254C1233.11 544.579 1232.31 545.668 1231.36 546.52C1230.41 547.277 1229.28 548.035 1227.95 548.792C1226.53 549.549 1225.02 550.307 1223.41 551.064C1221.89 551.821 1220.09 552.626 1218.01 553.478C1216.02 554.33 1213.66 555.277 1210.91 556.318C1208.26 557.359 1205.18 558.59 1201.68 560.01ZM1252.05 610.42C1250.73 610.42 1249.5 610.373 1248.36 610.278C1247.22 610.183 1246.18 609.852 1245.24 609.284C1244.38 608.811 1243.67 608.101 1243.11 607.154C1242.63 606.207 1242.4 604.882 1242.4 603.178C1242.4 601.947 1242.54 600.433 1242.82 598.634C1243.2 596.741 1243.77 594.327 1244.53 591.392C1245.28 588.363 1246.32 584.671 1247.65 580.316C1248.97 575.867 1250.63 570.471 1252.62 564.128C1254.61 557.785 1256.93 550.401 1259.58 541.976C1262.32 533.456 1265.49 523.563 1269.09 512.298C1269.75 510.31 1270.51 509.127 1271.36 508.748C1272.31 508.369 1273.35 508.18 1274.49 508.18C1276.85 508.18 1278.75 508.369 1280.17 508.748C1281.68 509.032 1282.77 509.505 1283.43 510.168C1284.19 510.736 1284.66 511.493 1284.85 512.44C1285.14 513.292 1285.28 514.286 1285.28 515.422C1285.28 516.653 1285.14 518.073 1284.85 519.682C1284.66 521.197 1284.24 523.279 1283.58 525.93C1282.91 528.486 1281.97 531.799 1280.74 535.87C1279.6 539.941 1278.04 545.1 1276.05 551.348C1274.16 557.501 1271.79 564.98 1268.95 573.784C1266.2 582.588 1262.94 593.001 1259.15 605.024C1258.3 607.58 1257.4 609.095 1256.45 609.568C1255.51 610.136 1254.04 610.42 1252.05 610.42ZM1326.19 560.01C1323.82 558.779 1322.07 557.88 1320.94 557.312C1319.8 556.744 1318.85 556.271 1318.1 555.892C1317.43 555.513 1316.77 555.182 1316.11 554.898C1315.54 554.614 1314.59 554.141 1313.27 553.478C1312.04 552.815 1310.19 551.916 1307.73 550.78C1305.27 549.549 1301.91 547.893 1297.65 545.81C1296.7 545.242 1296.23 544.295 1296.23 542.97C1296.23 542.118 1296.32 540.84 1296.51 539.136C1296.7 537.432 1297.03 535.728 1297.51 534.024C1298.07 532.225 1298.78 530.711 1299.64 529.48C1300.49 528.155 1301.62 527.492 1303.04 527.492C1304.27 527.492 1306.03 527.965 1308.3 528.912C1310.57 529.859 1313.08 531.137 1315.82 532.746C1318.66 534.261 1321.55 535.965 1324.49 537.858C1327.42 539.657 1330.17 541.455 1332.72 543.254C1335.37 545.053 1337.64 546.709 1339.54 548.224C1341.53 549.739 1342.85 550.875 1343.51 551.632C1344.08 552.389 1344.41 553.052 1344.51 553.62C1344.6 554.093 1344.65 554.614 1344.65 555.182L1344.08 563.844C1343.99 565.169 1343.7 566.163 1343.23 566.826C1342.85 567.489 1342.19 568.199 1341.24 568.956C1340.2 569.713 1338.45 570.849 1335.99 572.364C1333.53 573.784 1330.73 575.393 1327.61 577.192C1324.49 578.896 1321.17 580.695 1317.67 582.588C1314.17 584.387 1310.81 586.043 1307.59 587.558C1304.46 588.978 1301.67 590.161 1299.21 591.108C1296.75 592.055 1295 592.528 1293.96 592.528C1292.82 592.528 1292.25 591.913 1292.25 590.682C1292.25 587.179 1292.39 584.339 1292.68 582.162C1292.96 579.985 1293.43 578.233 1294.1 576.908C1294.76 575.488 1295.56 574.399 1296.51 573.642C1297.46 572.79 1298.59 571.985 1299.92 571.228C1301.34 570.471 1302.81 569.713 1304.32 568.956C1305.93 568.199 1307.73 567.394 1309.72 566.542C1311.8 565.69 1314.17 564.743 1316.82 563.702C1319.47 562.661 1322.59 561.43 1326.19 560.01Z" fill="white"/>
<path d="M484.374 431.279C484.374 441.407 476.166 449.634 466.025 449.634C455.884 449.634 447.676 441.423 447.676 431.279C447.676 421.135 455.884 412.924 466.025 412.924C476.166 412.924 484.374 421.135 484.374 431.279Z" stroke="white" stroke-width="1.32" stroke-miterlimit="10"/>
<path d="M1017.43 407.091C1017.43 410.309 1014.81 412.924 1011.6 412.924C1008.38 412.924 1005.76 410.309 1005.76 407.091C1005.76 403.874 1008.38 401.258 1011.6 401.258C1014.81 401.258 1017.43 403.874 1017.43 407.091Z" fill="white"/>
<path d="M564.519 812.274C564.519 817.917 559.956 822.482 554.315 822.482C548.674 822.482 544.111 817.917 544.111 812.274C544.111 806.632 548.674 802.067 554.315 802.067C559.956 802.067 564.519 806.632 564.519 812.274Z" fill="white"/>
<path d="M1059.69 705.522C1059.69 720.421 1047.61 732.499 1032.72 732.499C1017.82 732.499 1005.75 720.421 1005.75 705.522C1005.75 690.623 1017.82 678.545 1032.72 678.545C1047.61 678.545 1059.69 690.623 1059.69 705.522Z" stroke="white" stroke-width="1.95" stroke-miterlimit="10"/>
<path d="M447.042 664.977C468.528 684.79 511.374 736.018 527.885 756.053C529.992 758.573 531.688 760.634 532.813 761.981C533.668 763.011 534.255 763.741 534.477 764.121C534.176 763.899 533.478 763.217 532.353 762.377C531.228 761.521 529.802 760.46 527.917 759.096C516.825 751.25 491.567 735.876 449.165 722.514C389.587 703.731 247.676 652.075 271 603.24L271.238 602.653C271.444 602.146 271.697 601.766 272.078 601.322C298.254 555.308 420.279 640.155 447.058 664.977H447.042Z" fill="#8C95CA"/>
<path d="M501.122 709.516C501.122 709.516 500.647 708.534 499.649 706.663C498.888 705.173 497.779 703.065 496.495 700.482C483.47 675.502 447.343 607.044 423.654 575.359C396.004 538.253 376.039 476.96 411.184 462.013C411.802 461.68 412.515 461.379 413.276 461.204C414.543 460.745 415.763 460.364 417.094 460.016C460.162 449.665 513.592 560.697 501.154 709.516H501.122Z" fill="#8C95CA"/>
<path d="M569.384 863.709C584.564 883.395 610.883 927.602 626.459 954.5C626.427 954.579 626.506 954.611 626.586 954.658C630.246 961.046 633.352 966.419 635.507 970.239C637.424 973.473 638.596 975.613 639.024 976.262C637.281 974.281 615.335 948.398 561.873 920.85C507.983 893.127 383.122 821.991 403.911 777.404C404.18 776.738 404.497 775.977 404.925 775.375C405.385 774.487 405.971 773.552 406.589 772.728C439.167 728.537 546.915 834.497 569.368 863.709H569.384Z" fill="#8C95CA"/>
<path d="M591.441 661.934C592.677 662.726 593.944 663.741 595.164 664.818C627.299 693.08 645.727 792.509 616.841 910.341C616.27 912.465 615.795 914.604 615.224 916.728C615.224 916.728 615.066 916.174 614.781 915.175C610.709 902.352 582.076 811.894 561.525 771.507C539.357 728.125 530.119 659.746 574.391 656.735C580.333 656.323 586.085 658.066 591.456 661.918L591.441 661.934Z" fill="#8C95CA"/>
<path d="M663.109 1045.94C662.713 1046.54 662.111 1047.02 661.366 1047.24C659.687 1047.75 657.928 1046.8 657.421 1045.12C609.378 886.042 527.109 735.067 419.471 608.518C418.33 607.186 418.52 605.173 419.836 604.048C421.167 602.907 423.163 603.081 424.304 604.413C532.496 731.628 615.209 883.395 663.489 1043.29C663.775 1044.23 663.6 1045.18 663.109 1045.94Z" fill="#0C395A"/>
<path d="M527.869 756.053C529.533 757.511 531.07 759.017 532.686 760.555C533.035 760.887 533.114 761.411 532.94 761.839C532.876 762.008 532.802 762.108 532.718 762.14C532.559 762.266 532.448 762.33 532.337 762.377C531.941 762.615 531.498 762.52 531.149 762.187C530.087 761.173 528.962 760.127 527.901 759.096C454.98 689.45 366.453 635.765 270.984 603.224L271.222 602.637C271.428 602.13 271.681 601.75 272.062 601.306C367.039 633.641 455.234 686.898 527.885 756.037L527.869 756.053Z" fill="#0C395A"/>
<path d="M413.26 461.204C438.771 491.558 458.989 530.835 473.266 577.958C485.974 620.041 493.025 664.026 499.649 706.663C498.888 705.173 497.779 703.065 496.495 700.482C490.03 659.873 483.09 618.282 471.048 578.624C456.85 531.533 436.711 492.303 411.168 462.013C411.786 461.68 412.499 461.379 413.26 461.204Z" fill="#0C395A"/>
<path d="M404.925 775.375C504.988 827.887 577.639 886.66 626.443 954.5C626.411 954.579 626.491 954.611 626.57 954.658C629.771 959.287 633.003 963.836 636.014 968.496C636.251 968.892 636.283 969.288 636.14 969.621C636.077 969.795 635.887 970.002 635.728 970.144C635.654 970.176 635.575 970.208 635.491 970.239C635.047 970.35 634.429 970.192 634.112 969.78C585.689 896.202 510.312 833.292 403.895 777.404C404.164 776.738 404.481 775.977 404.909 775.375H404.925Z" fill="#0C395A"/>
<path d="M591.441 661.934C592.677 662.726 593.944 663.741 595.164 664.818C607.888 693.888 614.971 728.886 616.888 770.572C617.918 793.999 617.364 817.949 616.777 841.011C616.334 863.741 615.779 887.199 616.825 910.341C616.888 913.796 617.063 917.188 617.253 920.596C617.3 920.707 617.237 920.881 617.174 921.056C616.999 921.468 616.698 921.737 616.207 921.737C615.605 921.785 615.003 921.341 614.987 920.659C614.844 918.837 614.797 917.061 614.765 915.191C613.386 890.449 614.052 865.278 614.575 840.916C615.129 817.933 615.637 794.078 614.575 770.731C612.705 727.491 605.052 691.479 591.441 661.949V661.934Z" fill="#0C395A"/>
</svg>
